<svg width="74" height="30" viewBox="0 0 74 30" fill="none" xmlns="http://www.w3.org/2000/svg">
<path d="M28.728 0L23.1845 29.6217H17.4278L16.9303 26.6671C16.4328 23.7883 16.0775 21.4398 15.7932 19.6215C15.2957 16.5154 14.8693 13.3336 14.4429 10.0759C14.0875 12.879 13.6611 15.9851 13.1636 19.3185C12.8793 21.364 12.3818 24.5459 11.6711 28.7884L11.6 29.5459H5.84331L0.299805 0H4.91939L8.75721 22.8792C9.04149 21.1367 9.32577 19.2427 9.61005 17.1973C9.82327 15.9851 10.1075 14.0911 10.534 11.5153L12.3818 0H16.5039L18.2807 9.77289L20.2706 22.8034L22.9713 6.4395L24.1795 0H28.728Z" fill="#CCCCCC"/>
<path d="M28.728 0L23.1845 29.6217H17.4278L16.9303 26.6671C16.4328 23.7883 16.0775 21.4398 15.7932 19.6215C15.2957 16.5154 14.8693 13.3336 14.4429 10.0759C14.0875 12.879 13.6611 15.9851 13.1636 19.3185C12.8793 21.364 12.3818 24.5459 11.6711 28.7884L11.6 29.5459H5.84331L0.299805 0H4.91939L8.75721 22.8792C9.04149 21.1367 9.32577 19.2427 9.61005 17.1973C9.82327 15.9851 10.1075 14.0911 10.534 11.5153L12.3818 0H16.5039L18.2807 9.77289L20.2706 22.8034L22.9713 6.4395L24.1795 0H28.728Z" fill="white"/>
<path d="M35.4086 0V29.6217H30.8601V0H35.4086Z" fill="#CCCCCC"/>
<path d="M35.4086 0V29.6217H30.8601V0H35.4086Z" fill="white"/>
<path d="M55.3084 0V3.8637H49.1963V29.6217H44.6478V3.8637H37.5408L39.6018 0H55.3084Z" fill="#CCCCCC"/>
<path d="M55.3084 0V3.8637H49.1963V29.6217H44.6478V3.8637H37.5408L39.6018 0H55.3084Z" fill="white"/>
<path d="M74.0001 0V29.6217H69.4516V15.6063H61.9892V29.6217H57.4407V0H61.9892V11.8184H69.3805V0H74.0001Z" fill="#CCCCCC"/>
<path d="M74.0001 0V29.6217H69.4516V15.6063H61.9892V29.6217H57.4407V0H61.9892V11.8184H69.3805V0H74.0001Z" fill="white"/>
</svg>
