<svg width="120" height="109" viewBox="0 0 120 109" fill="none" xmlns="http://www.w3.org/2000/svg">
<path d="M62.7168 1.3677C62.7168 1.3677 118.227 0.158667 119.434 48.5199C120.641 96.8812 60.3033 97.4857 52.4595 95.6721C48.1085 94.6134 43.6603 94.0057 39.1852 93.8586C39.1852 93.8586 34.9616 95.6721 32.5481 95.0676C30.1346 94.4631 30.1346 92.045 29.5312 90.836C28.9279 89.627 9.61989 80.5592 5.99964 70.2825C2.37939 60.0057 -4.25773 42.4748 8.41314 25.5483C21.084 8.62188 44.0122 -1.05037 62.7168 1.3677Z" stroke="#555555" stroke-miterlimit="10"/>
<path d="M24.6219 103.704C22.5421 103.704 20.8561 102.018 20.8561 99.9382C20.8561 97.8584 22.5421 96.1724 24.6219 96.1724C26.7017 96.1724 28.3877 97.8584 28.3877 99.9382C28.3877 102.018 26.7017 103.704 24.6219 103.704Z" stroke="#555555" stroke-miterlimit="10"/>
<path d="M17.4326 108.497C15.92 108.497 14.6938 107.271 14.6938 105.758C14.6938 104.245 15.92 103.019 17.4326 103.019C18.9452 103.019 20.1714 104.245 20.1714 105.758C20.1714 107.271 18.9452 108.497 17.4326 108.497Z" stroke="#555555" stroke-miterlimit="10"/>
</svg>
