<svg width="157" height="211" viewBox="0 0 157 211" fill="none" xmlns="http://www.w3.org/2000/svg">
<g clip-path="url(#clip0_7_4253)">
<path d="M113.956 24.2217C113.881 20.4323 114.356 16.643 114.098 12.8704C113.839 9.09775 112.713 5.18324 109.987 2.54574C107.26 -0.0917614 102.657 -0.976489 99.6385 1.31046L99.1047 4.55725C100.772 19.1136 101.081 33.9537 102.757 48.51C102.974 50.4214 104.583 52.1074 105.509 53.7934C106.435 55.4794 108.227 56.8398 110.137 56.6646C112.639 56.4309 114.215 53.8268 114.915 51.4146C117.475 42.6508 114.131 33.3527 113.956 24.2217Z" fill="#263238"/>
<path d="M104.241 4.8828C103.707 3.95021 103.031 3.10564 102.24 2.37884C101.839 2.0097 101.36 1.73669 100.839 1.58051C100.317 1.42433 99.7669 1.38907 99.2297 1.47741C98.976 1.51397 98.7362 1.61642 98.5343 1.77458C98.3324 1.93273 98.1753 2.14107 98.0789 2.37884C97.9204 2.86294 98.3041 3.49726 98.8128 3.43884L98.9211 3.53065C100.088 4.49328 101.273 5.43644 102.473 6.36012C102.763 6.6091 103.097 6.80161 103.457 6.92769C103.639 6.98589 103.834 6.99253 104.019 6.94686C104.205 6.90119 104.374 6.805 104.508 6.66895C104.908 6.14312 104.616 5.41697 104.241 4.8828Z" fill="#B4DEDA"/>
<path d="M106.493 8.5553C104.667 6.3541 102.37 4.59173 99.7716 3.39842C97.1737 2.20512 94.3411 1.61139 91.4831 1.66108C88.1476 1.71116 86.755 2.454 84.3618 3.18014C81.9604 3.833 79.8648 5.31023 78.4415 7.3534C76.6962 9.78309 75.5892 12.6131 75.2227 15.5831C75.0019 18.4203 75.2526 21.2746 75.9648 24.0297C77.0294 27.563 78.6692 30.8963 80.8179 33.8953L85.9878 34.3544C90.2739 34.3544 94.6184 34.3544 98.7627 33.261C102.907 32.1676 106.885 29.7805 109.003 26.0496C111.946 20.8581 110.453 13.0207 106.493 8.5553Z" fill="#263238"/>
<path d="M99.6134 8.69703L89.1484 4.90771L86.4633 5.30834C80.3845 5.52535 76.407 12.3612 76.5237 17.2856C76.6488 22.7609 77.0241 29.4381 78.0164 33.4445C80.0177 41.4989 86.9554 41.9496 86.9554 41.9496C86.9554 41.9496 86.9554 46.2814 86.9554 49.0024L102.74 47.3331L102.407 11.3679C102.354 10.6558 102.038 9.98871 101.523 9.49545C101.007 9.00219 100.327 8.71774 99.6134 8.69703Z" fill="#F2C5B1"/>
<path d="M90.0907 31.1576C90.0169 30.7449 89.7944 30.3736 89.4653 30.1143C89.1641 29.8695 88.7901 29.7317 88.4022 29.7226C88.0143 29.7136 87.6345 29.8337 87.3222 30.0642C86.9972 30.3311 86.7488 30.6796 86.6023 31.0741C86.4558 31.4685 86.4165 31.8948 86.4883 32.3094C86.6763 32.551 86.913 32.7502 87.1831 32.894C87.4533 33.0378 87.7506 33.123 88.0559 33.144H88.3478C88.8288 33.1276 89.2853 32.9275 89.6237 32.5848C89.8048 32.3981 89.9409 32.1725 90.0219 31.9252C90.1028 31.6779 90.1264 31.4154 90.0907 31.1576Z" fill="#EB996E"/>
<path d="M80.1761 23.4205C80.1814 23.5579 80.2141 23.6929 80.2722 23.8175C80.3302 23.9422 80.4123 24.054 80.514 24.1465C80.6157 24.239 80.7348 24.3102 80.8644 24.3561C80.9939 24.402 81.1313 24.4216 81.2685 24.4137C81.4024 24.4138 81.5349 24.3868 81.6581 24.3343C81.7813 24.2818 81.8926 24.2049 81.9853 24.1082C82.078 24.0115 82.1503 23.897 82.1976 23.7716C82.245 23.6463 82.2663 23.5126 82.2607 23.3787C82.2394 23.1056 82.1125 22.8517 81.9069 22.6709C81.7013 22.49 81.4335 22.3967 81.1602 22.4105C80.8962 22.4149 80.6446 22.5235 80.4603 22.7127C80.276 22.9019 80.1738 23.1562 80.1761 23.4205Z" fill="#263238"/>
<path d="M78.4418 19.9648C78.5835 20.09 79.3256 19.4306 80.4513 19.3388C81.577 19.247 82.4526 19.7395 82.561 19.5892C82.6694 19.439 82.4609 19.2887 82.0773 19.055C81.5725 18.7635 80.99 18.6352 80.4096 18.6878C79.8245 18.7381 79.2702 18.9718 78.8253 19.3555C78.4668 19.6476 78.3751 19.9064 78.4418 19.9648Z" fill="#263238"/>
<path d="M85.9714 28.5869C85.3605 28.4568 84.7362 28.4008 84.1119 28.42C83.8201 28.42 83.5449 28.3782 83.4782 28.1863C83.4363 27.9026 83.4769 27.6129 83.595 27.3516C83.8035 26.6338 84.0287 25.8743 84.2622 25.0897C85.1711 21.8596 85.8048 19.2471 85.6714 19.1887C84.8919 21.0583 84.2618 22.9869 83.7868 24.9562L83.1614 27.2348C83.0141 27.5989 82.9964 28.0026 83.1113 28.3782C83.1618 28.4756 83.2339 28.56 83.322 28.6252C83.4102 28.6903 83.5123 28.7343 83.6201 28.7538C83.7832 28.7782 83.9488 28.7782 84.1119 28.7538C84.7364 28.7812 85.3618 28.725 85.9714 28.5869Z" fill="#263238"/>
<path d="M86.9221 41.9413C90.7677 41.6685 94.4625 40.3337 97.5956 38.0852C97.5956 38.0852 95.1774 43.9945 86.9388 43.9278L86.9221 41.9413Z" fill="#F3B69A"/>
<path d="M89.3486 29.0793C89.1652 29.0793 89.2652 30.3146 88.298 31.2661C87.3307 32.2176 86.0132 32.2092 86.0215 32.3761C86.0299 32.5431 86.3301 32.5932 86.8554 32.5598C87.57 32.5144 88.246 32.2189 88.765 31.7251C89.2715 31.2488 89.571 30.5924 89.5988 29.8972C89.6072 29.3631 89.432 29.0709 89.3486 29.0793Z" fill="#263238"/>
<path d="M78.7001 16.0003C78.9169 16.2591 79.7591 16.0003 80.7764 16.0003C81.7937 16.0003 82.6442 16.1923 82.8444 15.9252C82.9361 15.8 82.8444 15.5413 82.4274 15.2909C81.9249 14.9884 81.3458 14.8377 80.7597 14.8568C80.1663 14.8532 79.5854 15.0276 79.092 15.3576C78.7668 15.608 78.6084 15.8751 78.7001 16.0003Z" fill="#263238"/>
<path d="M92.8507 23.12C92.8648 23.3931 92.7729 23.6611 92.5942 23.868C92.4155 24.0749 92.1639 24.2046 91.8919 24.2301C91.7581 24.2463 91.6225 24.2358 91.4929 24.1992C91.3632 24.1626 91.2421 24.1005 91.1366 24.0166C91.0311 23.9328 90.9433 23.8288 90.8783 23.7107C90.8132 23.5926 90.7722 23.4627 90.7577 23.3286C90.7438 23.0564 90.836 22.7894 91.0149 22.5838C91.1937 22.3783 91.4455 22.2503 91.7168 22.2269C91.8503 22.2083 91.9861 22.2168 92.1162 22.252C92.2463 22.2872 92.3678 22.3483 92.4737 22.4317C92.5796 22.5151 92.6677 22.6191 92.7325 22.7373C92.7972 22.8556 92.8374 22.9857 92.8507 23.12Z" fill="#263238"/>
<path d="M93.693 19.2387C93.5679 19.3806 92.7424 18.8298 91.6166 18.8882C90.4909 18.9466 89.6904 19.5476 89.557 19.414C89.4236 19.2805 89.6154 19.1052 89.9656 18.8214C90.4466 18.4554 91.0294 18.2483 91.6333 18.2288C92.2227 18.2006 92.806 18.3583 93.3011 18.6795C93.6263 18.9299 93.7763 19.172 93.693 19.2387Z" fill="#263238"/>
<path d="M92.9426 15.4495C92.7341 15.7166 91.8501 15.4912 90.7995 15.5329C89.7488 15.5747 88.8734 15.8 88.6566 15.5329C88.5649 15.4077 88.6566 15.1407 89.0652 14.8819C89.5788 14.5546 90.1739 14.3782 90.7828 14.3728C91.39 14.3533 91.9907 14.5036 92.5173 14.8068C92.8592 15.0655 92.9926 15.3243 92.9426 15.4495Z" fill="#263238"/>
<path d="M101.44 25.1815C101.389 24.5722 101.973 23.0782 102.565 22.9279C104.141 22.544 107.043 22.4188 107.418 26.4919C107.935 32.059 102.248 31.433 102.223 31.2744C102.198 31.1159 101.623 27.2848 101.44 25.1815Z" fill="#F2C5B1"/>
<path d="M103.574 29.096C103.574 29.096 103.674 29.1545 103.841 29.2129C104.08 29.2904 104.34 29.2725 104.567 29.1628C104.898 28.8992 105.154 28.5529 105.309 28.1588C105.464 27.7647 105.513 27.3366 105.45 26.9176C105.42 26.4373 105.283 25.9697 105.05 25.5488C104.98 25.3742 104.867 25.2205 104.721 25.1021C104.575 24.9838 104.401 24.9048 104.216 24.8727C104.101 24.8542 103.983 24.8766 103.882 24.936C103.782 24.9955 103.705 25.0882 103.666 25.1982C103.608 25.3568 103.666 25.4653 103.624 25.4737C103.583 25.482 103.499 25.3985 103.516 25.1648C103.536 25.0218 103.604 24.8897 103.708 24.7892C103.85 24.6626 104.034 24.5941 104.225 24.5973C104.457 24.6212 104.68 24.7043 104.871 24.8387C105.062 24.9732 105.216 25.1544 105.317 25.3652C105.604 25.8257 105.77 26.3509 105.801 26.8926C105.871 27.3811 105.795 27.8794 105.583 28.3249C105.37 28.7704 105.031 29.1432 104.608 29.3965C104.463 29.4543 104.306 29.4783 104.15 29.4667C103.994 29.4552 103.843 29.4083 103.708 29.3297C103.591 29.2296 103.549 29.1044 103.574 29.096Z" fill="#EB996E"/>
<path d="M102.79 22.9447L101.423 24.4554C95.1271 18.7881 82.7194 4.50721 83.4198 5.35856C86.1688 4.23172 89.1554 3.80998 92.1086 4.13162C96.6782 4.76596 105.367 6.76912 105.409 12.1443C105.45 17.5194 102.79 22.9447 102.79 22.9447Z" fill="#263238"/>
<path d="M110.846 21.4505C110.824 21.3424 110.793 21.2363 110.754 21.1334C110.638 20.8459 110.501 20.5669 110.345 20.2987C109.742 19.2817 108.925 18.4076 107.952 17.7363C106.497 16.7647 104.887 16.0504 103.191 15.6247C101.306 15.0738 99.1964 14.6732 97.1034 13.8469C95.1327 13.0979 93.2551 12.1233 91.5082 10.9423C90.0814 9.97086 88.7445 8.87304 87.514 7.66209C86.6855 6.84347 85.9058 5.97673 85.1791 5.06633L84.6038 4.31514C84.536 4.22287 84.4607 4.13634 84.3787 4.0564C84.4274 4.15923 84.486 4.25708 84.5537 4.34853C84.6788 4.52381 84.8457 4.79923 85.0959 5.13309C85.79 6.07668 86.5507 6.96928 87.3723 7.80399C88.5916 9.04146 89.9263 10.1594 91.3582 11.1426C93.1151 12.35 95.0104 13.342 97.0035 14.0973C99.0115 14.7932 101.054 15.3839 103.124 15.8667C104.796 16.2705 106.389 16.9534 107.835 17.8866C108.805 18.5215 109.631 19.3515 110.262 20.3238C110.679 21.0249 110.82 21.4672 110.846 21.4505Z" fill="#455A64"/>
<path d="M109.253 22.3854C109.255 21.9681 109.166 21.5553 108.994 21.1752C108.545 20.1223 107.79 19.2293 106.826 18.6128C105.383 17.7466 103.781 17.179 102.115 16.9435C100.114 16.6029 98.1565 16.0431 96.2779 15.2742C94.4083 14.4892 92.6435 13.4742 91.0245 12.2527C89.7042 11.2642 88.4864 10.1457 87.389 8.91412C86.6506 8.07384 85.9628 7.19033 85.3293 6.26828L84.8373 5.50875C84.7854 5.41417 84.7209 5.32711 84.6455 5.25C84.6837 5.34888 84.7311 5.44392 84.7872 5.53379L85.2375 6.36844C85.8369 7.31871 86.5028 8.2252 87.2304 9.08106C88.3171 10.353 89.5359 11.5057 90.8661 12.5198C92.4945 13.7656 94.2737 14.8004 96.1612 15.5997C98.0571 16.3773 100.035 16.9373 102.056 17.269C103.693 17.4907 105.271 18.0294 106.701 18.8548C107.651 19.4374 108.41 20.2843 108.886 21.292C109.04 21.6452 109.162 22.011 109.253 22.3854Z" fill="#455A64"/>
<path d="M102.949 32.3845C102.949 32.3845 103.416 32.276 104.233 32.0339C105.379 31.6576 106.425 31.0271 107.293 30.1893C108.559 28.9219 109.505 27.3713 110.053 25.6655C110.747 23.5779 111.085 21.3884 111.054 19.1886C111.047 18.0656 110.921 16.9465 110.679 15.85C110.438 14.8231 110.098 13.8222 109.662 12.862C108.908 11.2328 107.884 9.74279 106.635 8.45499C105.46 7.28134 104.173 6.22728 102.791 5.30835C102.902 5.34453 103.009 5.39502 103.107 5.45858C103.307 5.57543 103.608 5.72567 103.941 5.96772C104.975 6.62622 105.932 7.39896 106.793 8.27137C108.093 9.56094 109.159 11.0661 109.945 12.7201C110.401 13.6996 110.756 14.7231 111.004 15.7749C111.259 16.9063 111.391 18.0621 111.396 19.222C111.432 21.4617 111.077 23.6904 110.345 25.8074C109.774 27.5599 108.777 29.1431 107.443 30.4147C106.536 31.2554 105.441 31.8677 104.25 32.2008C103.927 32.2875 103.598 32.3516 103.266 32.3928C103.16 32.4043 103.054 32.4015 102.949 32.3845Z" fill="#455A64"/>
<path d="M111.98 49.2445L101.148 45.0713L87.6892 47.1997L79.7842 51.0975L93.3595 57.566L100.389 58.0334L112.03 49.6535" fill="#F2C5B1"/>
<path d="M37.1654 111.351C37.1756 111.428 37.1756 111.507 37.1654 111.585C37.1654 111.76 37.1654 111.994 37.1654 112.294C37.1654 112.92 37.1653 113.83 37.2403 114.99C37.2987 117.344 37.3821 120.732 37.4822 124.914C37.6573 133.311 37.8992 144.879 38.166 157.666C38.166 158.692 38.1658 159.711 38.2242 160.662V161.296L37.9492 160.695L24.9825 132.818C23.3148 129.288 22.0308 126.433 21.1218 124.472C20.6716 123.495 20.2878 122.735 20.0877 122.201C19.9709 121.951 19.8877 121.759 19.821 121.609C19.7861 121.546 19.7607 121.479 19.7458 121.408L19.846 121.6L20.1377 122.176C20.3879 122.702 20.7465 123.462 21.2135 124.43L25.1493 132.776L38.1994 160.62L37.9325 160.687C37.9325 159.736 37.9324 158.717 37.8741 157.691C37.6406 144.904 37.4321 133.327 37.2737 124.939C37.2153 120.766 37.1654 117.369 37.1237 115.007C37.1237 113.846 37.1237 112.937 37.1237 112.311V111.61C37.157 111.434 37.1654 111.351 37.1654 111.351Z" fill="#E0E0E0"/>
<path d="M56.9195 126.717C56.8804 126.841 56.8302 126.961 56.7695 127.076C56.6416 127.326 56.4831 127.66 56.2941 128.077C55.8688 128.912 55.2435 130.189 54.468 131.725C52.9003 134.796 50.6905 139.011 48.1472 143.61C45.604 148.209 43.2108 152.332 41.4763 155.295C40.5924 156.773 39.8753 157.966 39.3583 158.776L38.7412 159.719C38.6768 159.83 38.6043 159.936 38.5244 160.036C38.5695 159.913 38.6282 159.795 38.6995 159.686L39.2416 158.726L41.2428 155.195C42.9689 152.207 45.3287 148.076 47.872 143.51C50.4153 138.944 52.6502 134.713 54.2595 131.666C55.0517 130.164 55.6936 128.937 56.1606 128.061L56.686 127.084C56.7495 126.953 56.8278 126.83 56.9195 126.717Z" fill="#E0E0E0"/>
<path d="M66.334 154.886C66.334 154.961 59.9548 156.33 52.0665 157.941C44.1781 159.552 37.7574 160.796 37.7408 160.721C37.7241 160.645 44.1114 159.277 52.0081 157.666C59.9048 156.055 66.3173 154.811 66.334 154.886Z" fill="#E0E0E0"/>
<path d="M65.4249 174.793C65.4249 174.859 59.1959 171.93 51.591 168.249C43.9862 164.568 37.849 161.522 37.9074 161.455C37.9658 161.388 44.1364 164.318 51.7413 167.999C59.3461 171.679 65.4666 174.718 65.4249 174.793Z" fill="#E0E0E0"/>
<path d="M59.8214 189.733C59.7226 189.664 59.6328 189.583 59.5545 189.491L58.8292 188.765C58.2121 188.122 57.3281 187.187 56.2441 186.019C54.0927 183.665 51.241 180.352 48.1724 176.546C45.1037 172.74 42.5687 169.167 40.7759 166.53C39.8753 165.211 39.1582 164.143 38.6829 163.392L38.1326 162.557C38.0649 162.457 38.0064 162.35 37.9575 162.24C38.043 162.326 38.1186 162.421 38.1827 162.524L38.7747 163.358L40.9343 166.446C42.7771 169.042 45.3706 172.589 48.3892 176.395C51.4078 180.201 54.2761 183.532 56.3941 185.91L58.8957 188.715L59.5796 189.474C59.667 189.554 59.7479 189.641 59.8214 189.733Z" fill="#E0E0E0"/>
<path d="M48.0223 204.172C47.9729 204.025 47.934 203.875 47.9056 203.722C47.8306 203.405 47.7388 202.979 47.622 202.445C47.3802 201.301 47.03 199.699 46.6047 197.729C45.7709 193.748 44.4785 188.264 42.9275 182.238C41.3765 176.212 39.8421 170.803 38.683 166.905C38.0993 164.969 37.6324 163.4 37.2989 162.281L36.9237 161.021C36.8697 160.878 36.8332 160.73 36.8152 160.579C36.8779 160.717 36.9308 160.859 36.9736 161.004C37.082 161.313 37.2237 161.722 37.3988 162.248C37.7574 163.325 38.2327 164.894 38.8665 166.847C40.0756 170.736 41.6517 176.145 43.2027 182.171C44.7537 188.197 45.9793 193.689 46.7965 197.687C47.2051 199.682 47.5221 201.301 47.7305 202.42C47.8223 202.962 47.9057 203.396 47.9557 203.713C47.988 203.865 48.0102 204.018 48.0223 204.172Z" fill="#E0E0E0"/>
<path d="M27.9429 208.313C27.9429 208.313 27.9429 208.313 27.9429 208.187L28.0178 207.828L28.3515 206.451C28.6433 205.233 29.0519 203.513 29.5605 201.402C30.5695 197.137 31.887 191.219 33.1462 184.65C34.4053 178.081 35.3475 172.13 35.9812 167.748C36.2898 165.603 36.54 163.851 36.7151 162.607L36.9153 161.213L36.9735 160.846C36.9735 160.771 36.9735 160.729 36.9735 160.729V160.854C36.9671 160.977 36.9671 161.099 36.9735 161.221C36.929 161.561 36.879 162.028 36.8234 162.624C36.69 163.842 36.4732 165.603 36.1814 167.782C35.5976 172.13 34.6722 178.123 33.4131 184.7C32.1539 191.277 30.8113 197.22 29.7523 201.452C29.227 203.58 28.7766 205.299 28.4514 206.46L28.0762 207.828L27.9679 208.179L27.9429 208.313Z" fill="#E0E0E0"/>
<path d="M8.61401 174.793C8.70545 174.73 8.80315 174.677 8.90574 174.634L9.73961 174.25L12.8416 172.865L23.0564 168.266C27.0423 166.455 30.6696 164.852 33.313 163.734C34.6305 163.174 35.7062 162.732 36.4483 162.432L37.2822 162.098C37.3811 162.053 37.4846 162.02 37.5908 161.998C37.5013 162.057 37.4063 162.107 37.3072 162.148L36.4734 162.532L33.3714 163.917L23.1566 168.516C19.1707 170.327 15.5433 171.93 12.9083 173.048C11.5825 173.608 10.5151 174.058 9.76465 174.35L8.93078 174.693C8.82971 174.739 8.72337 174.773 8.61401 174.793Z" fill="#E0E0E0"/>
<path d="M40.0673 160.17C39.9525 160.154 39.8402 160.123 39.7336 160.078L38.7998 159.761C37.9659 159.485 36.8235 159.06 35.3809 158.517C32.5124 157.432 28.5682 155.846 24.2988 153.918C20.0294 151.99 16.2187 150.104 13.5003 148.668C12.1411 147.95 11.0486 147.358 10.3065 146.941L9.47264 146.448C9.36707 146.398 9.26901 146.333 9.18091 146.256C9.29015 146.295 9.39601 146.342 9.49768 146.398L10.3816 146.84L13.6171 148.51C16.3522 149.895 20.163 151.765 24.4574 153.685C28.7518 155.604 32.6542 157.223 35.5061 158.35L38.8415 159.627L39.7587 159.994C39.8691 160.038 39.973 160.097 40.0673 160.17Z" fill="#E0E0E0"/>
<path d="M40.5093 160.662C40.5093 162.941 39.4419 164.794 38.1327 164.794C36.8235 164.794 35.7561 162.941 35.7561 160.662C35.7561 158.384 36.8235 156.539 38.1327 156.539C39.4419 156.539 40.5093 158.384 40.5093 160.662Z" fill="#E0E0E0"/>
<path d="M15.8101 194.349C15.7517 194.307 20.6965 186.728 26.8588 177.43C33.021 168.132 38.0659 160.62 38.1327 160.662C38.1994 160.704 33.2546 168.282 27.0923 177.58C20.93 186.878 15.8768 194.39 15.8101 194.349Z" fill="#E0E0E0"/>
<path d="M62.6649 143.301C62.5867 143.367 62.503 143.425 62.4147 143.477L61.6893 143.911C61.0472 144.286 60.13 144.837 59.0043 145.521C56.7445 146.899 53.6675 148.86 50.3904 151.205C47.1133 153.551 44.2531 155.821 42.2185 157.515C41.2012 158.35 40.3841 159.051 39.8254 159.527L39.175 160.078C39.1006 160.144 39.0196 160.203 38.9331 160.253C38.9331 160.253 38.9915 160.17 39.1332 160.036L39.7503 159.452C40.2923 158.943 41.0928 158.225 42.0935 157.365C44.0948 155.629 46.9382 153.334 50.2237 150.98C53.5091 148.626 56.6193 146.69 58.9041 145.355C60.0465 144.687 60.9805 144.169 61.6309 143.819L62.3898 143.426C62.4751 143.372 62.5677 143.33 62.6649 143.301Z" fill="#E0E0E0"/>
<path d="M39.3666 210.232C39.3576 210.076 39.3576 209.92 39.3666 209.765C39.3666 209.431 39.3666 208.98 39.3165 208.421C39.2748 207.219 39.2248 205.533 39.1581 203.463C39.0331 199.29 38.8495 193.447 38.6577 187.121C38.4659 180.794 38.2158 174.985 38.0657 170.778C37.9907 168.708 37.9323 167.022 37.8906 165.829C37.8906 165.261 37.8906 164.81 37.8489 164.476C37.8397 164.321 37.8397 164.165 37.8489 164.009C37.8762 164.164 37.893 164.32 37.899 164.476C37.899 164.81 37.9491 165.253 37.9908 165.82C38.0575 167.014 38.1408 168.7 38.2575 170.77C38.466 174.943 38.7078 180.727 38.9246 187.112C39.1414 193.497 39.2749 199.273 39.3499 203.463C39.3499 205.533 39.4 207.219 39.4167 208.413V209.765C39.4165 209.922 39.3997 210.078 39.3666 210.232Z" fill="#E0E0E0"/>
<path d="M66.9926 164.326H66.434L64.8247 164.243C63.4154 164.168 61.3809 164.034 58.8376 163.817C53.751 163.4 46.663 162.624 38.6746 161.313H38.6247L34.7805 157.065L18.6036 139.061L13.7254 133.544L12.4079 132.042L12.0744 131.65C11.9994 131.558 11.9576 131.508 11.9659 131.508L12.0911 131.633L12.4496 132.009L13.8089 133.469L18.7537 138.886L34.989 156.831L38.8248 161.088H38.7414C46.7048 162.357 53.751 163.158 58.8543 163.625C61.3559 163.867 63.4238 164.026 64.8247 164.134L66.4423 164.268H66.8509C66.951 164.31 66.9926 164.318 66.9926 164.326Z" fill="#E0E0E0"/>
<path d="M27.9429 113.646C28.071 113.934 28.1633 114.237 28.2179 114.548C28.368 115.149 28.5767 116.033 28.8352 117.177C29.3522 119.472 30.0691 122.786 30.9447 126.892C32.6791 135.097 35.0306 146.448 37.6156 158.993C37.6906 159.343 37.7573 159.686 37.824 160.011H37.5574L44.9035 128.745L47.1551 119.322C47.4303 118.22 47.6388 117.36 47.7805 116.768L47.9556 116.1C47.9556 115.958 48.0139 115.875 48.0222 115.883C48.0305 115.891 48.0224 115.958 47.9807 116.108C47.939 116.259 47.8971 116.492 47.8388 116.776C47.7053 117.377 47.5053 118.237 47.2634 119.347L45.0872 128.787C43.2277 136.774 40.651 147.8 37.7992 160.045L37.6573 160.662L37.524 160.036C37.4656 159.719 37.3906 159.368 37.3238 159.018C34.7555 146.498 32.4289 135.139 30.7445 126.909C29.9107 122.811 29.2103 119.489 28.7267 117.177C28.4848 116.042 28.2931 115.157 28.1597 114.539C28.093 114.247 28.0428 114.022 28.0094 113.855C27.9761 113.688 27.9429 113.646 27.9429 113.646Z" fill="#E0E0E0"/>
<path d="M39.3333 160.462C39.3333 160.37 32.4206 160.295 23.8902 160.295C15.3597 160.295 8.45532 160.37 8.45532 160.462C8.45532 160.554 15.3681 160.629 23.8902 160.629C32.4123 160.629 39.3333 160.587 39.3333 160.462Z" fill="#E0E0E0"/>
<path d="M61.7729 130.648C58.6626 123.42 53.851 116.376 46.9883 112.286C43.9229 110.429 40.4571 109.335 36.882 109.097C33.3237 108.934 29.7809 109.663 26.5753 111.217C19.5708 114.456 14.4427 121.091 11.0572 127.844C6.66272 136.608 4.53627 146.415 4.07765 156.18C3.50753 166.298 4.97077 176.427 8.38052 185.969C11.2907 193.798 15.7101 201.285 22.4894 206.334C28.1347 210.508 35.5311 212.135 42.277 209.865C49.6317 207.361 55.1936 201.393 59.0127 194.841C63.8241 186.561 66.2757 177.055 67.1763 167.573C67.4098 165.064 67.5265 162.543 67.5265 160.011C67.6206 149.934 65.663 139.943 61.7729 130.648ZM62.0229 167.531C61.9645 168.132 61.8978 168.725 61.8311 169.318L61.7311 170.152V170.194L61.656 170.703C61.4809 171.888 61.2808 173.074 61.0473 174.242C60.6086 176.512 60.0519 178.757 59.3796 180.969C59.0711 181.996 58.7292 183.023 58.3623 184.032C58.1872 184.533 57.9955 185.026 57.8037 185.518C57.7036 185.777 57.6035 186.036 57.495 186.286L57.3701 186.603C56.5586 188.493 55.6399 190.335 54.6183 192.12C54.1263 192.955 53.6092 193.79 53.0672 194.624C52.8281 194.991 52.5781 195.35 52.3168 195.701L51.8915 196.285L51.7331 196.494C50.6393 197.893 49.4376 199.205 48.1391 200.417C47.8306 200.7 47.522 200.976 47.2051 201.251L46.7049 201.66L46.5713 201.769C45.9209 202.245 45.2623 202.712 44.5702 203.129C43.8917 203.55 43.1901 203.931 42.4688 204.273L41.9934 204.49H41.9185C41.5433 204.64 41.168 204.774 40.7927 204.899C40.0818 205.133 39.358 205.325 38.6248 205.475L38.0409 205.575H37.8659H37.4823C37.2655 205.575 37.0487 205.575 36.8235 205.625C36.0737 205.671 35.3219 205.671 34.5721 205.625H34.0469H33.6548H33.4881L32.846 205.508C32.0894 205.354 31.3432 205.153 30.6113 204.907C30.2777 204.799 29.9442 204.673 29.619 204.54H29.5356L28.9352 204.264C27.5245 203.526 26.1676 202.69 24.8744 201.76C25.5415 202.203 24.9327 201.811 24.7742 201.677L24.3239 201.31C23.9904 201.026 23.6569 200.734 23.34 200.433C22.6896 199.832 22.0725 199.206 21.4805 198.555C20.8885 197.904 20.3214 197.22 19.771 196.527L19.6377 196.352L19.2124 195.768C18.9289 195.367 18.6454 194.933 18.3785 194.557C17.2757 192.896 16.2812 191.164 15.4016 189.374C14.9172 188.479 14.4911 187.553 14.1258 186.603C14.3509 187.246 14.1259 186.545 14.0341 186.37C13.9424 186.194 13.8256 185.86 13.7255 185.602C13.5254 185.084 13.3253 184.558 13.1335 184.032C12.3765 181.908 11.728 179.746 11.1905 177.556C10.6402 175.294 10.1984 172.998 9.85647 170.686C9.85647 170.536 9.85642 170.386 9.79805 170.227C9.73968 170.069 9.72289 169.676 9.68954 169.393C9.61449 168.733 9.54778 168.066 9.48107 167.398C9.37267 166.188 9.28945 164.977 9.23108 163.759C9.11433 161.255 9.12267 158.659 9.23108 156.113C9.29778 154.861 9.38103 153.609 9.50611 152.374C9.56448 151.773 9.62284 151.181 9.69789 150.588C9.69789 150.396 9.69795 150.212 9.76466 150.02C9.76466 150.02 9.76466 150.02 9.76466 149.82C9.76466 149.62 9.82312 149.411 9.85647 149.202C10.516 144.65 11.6335 140.176 13.1919 135.848C13.3754 135.347 13.5588 134.855 13.7506 134.362L14.0258 133.678C14.0258 133.569 14.1175 133.453 14.1675 133.344V133.302C14.5844 132.342 15.0014 131.391 15.4851 130.465C16.3598 128.706 17.3456 127.006 18.4368 125.373C18.6869 124.989 18.9538 124.614 19.2706 124.238L19.6959 123.654V123.612L19.7961 123.478L19.8462 123.42C20.3882 122.727 20.955 122.06 21.5554 121.409C22.1558 120.758 22.7647 120.14 23.4151 119.547C23.7153 119.264 24.0321 118.988 24.3489 118.713L24.7993 118.345L24.9576 118.22C26.2467 117.25 27.6294 116.411 29.0852 115.716L29.5189 115.516H29.5856C29.9525 115.374 30.3278 115.232 30.7031 115.115C31.4354 114.873 32.1816 114.675 32.9378 114.523L33.5215 114.423H33.6049H33.4881C33.88 114.423 34.272 114.331 34.6723 114.314C35.4442 114.264 36.2183 114.264 36.9903 114.314H37.5157L37.966 114.381L37.5491 114.314C37.941 114.381 38.3328 114.439 38.7164 114.514C39.4509 114.666 40.1751 114.864 40.8845 115.107C41.2431 115.224 41.5933 115.357 41.9436 115.491L42.5523 115.775C43.2533 116.109 43.9353 116.483 44.5952 116.893C44.9287 117.102 45.2622 117.319 45.5874 117.544L46.1045 117.911L46.5048 118.212L46.7132 118.379L47.1636 118.754C47.4971 119.038 47.8223 119.33 48.1475 119.631C48.7923 120.232 49.4094 120.858 49.9986 121.509C50.599 122.168 51.1077 122.953 51.7248 123.579L51.8414 123.721L52.2166 124.246C52.5085 124.647 52.7837 125.081 53.0505 125.457C53.6092 126.291 54.1346 127.126 54.635 128.027C55.1353 128.929 55.5855 129.755 56.0274 130.64C56.2526 131.091 56.4694 131.55 56.6779 132.009C56.7779 132.226 56.8781 132.443 56.9698 132.66C57.0615 132.877 57.0949 132.935 57.1532 133.077L57.1948 133.16C57.1948 133.219 57.2699 133.336 57.2866 133.386L57.4617 133.811C57.5534 134.037 57.6452 134.262 57.7286 134.496C57.937 135.013 58.1288 135.539 58.3206 136.065C58.6958 137.117 59.0377 138.177 59.3546 139.237C60.0093 141.433 60.552 143.662 60.9805 145.914C61.2057 147.091 61.4058 148.276 61.5809 149.461L61.631 149.862V149.912L61.7311 150.747C61.8062 151.373 61.8729 152.007 61.9313 152.641C62.1592 155.084 62.2703 157.535 62.2647 159.995C62.2592 162.454 62.1785 164.966 62.0229 167.531Z" fill="#263238"/>
<path d="M62.3731 159.969C62.3731 159.969 62.3731 160.078 62.3731 160.295C62.3731 160.512 62.3731 160.854 62.3731 161.271C62.3731 162.106 62.3146 163.408 62.1978 165.069C61.8872 169.83 61.0967 174.548 59.8382 179.15C58.9558 182.407 57.7866 185.58 56.3443 188.631C55.5337 190.362 54.6059 192.035 53.5675 193.639C53.0505 194.474 52.4834 195.308 51.8997 196.143C51.316 196.978 50.6071 197.746 49.8983 198.522C49.1805 199.311 48.4177 200.058 47.6136 200.759C47.2132 201.127 46.7928 201.472 46.3544 201.794L44.9786 202.728C44.5143 203.039 44.0295 203.318 43.5277 203.563C43.0274 203.822 42.5437 204.122 42.0184 204.339C40.931 204.748 39.8165 205.08 38.6829 205.333C38.1119 205.457 37.532 205.535 36.9486 205.566C36.3566 205.566 35.7561 205.566 35.164 205.566C34.5632 205.578 33.9629 205.53 33.3713 205.424C32.7709 205.333 32.1955 205.132 31.6034 204.982C30.4011 204.697 29.2467 204.239 28.1763 203.622C27.084 203.012 26.0499 202.278 24.9826 201.568L24.8158 201.819L25.0577 201.986H25.1159C25.2076 201.894 24.9158 202.211 25.3244 201.769L25.2077 201.685C25.0502 201.578 24.8997 201.461 24.7574 201.335C24.4572 201.093 24.1737 200.825 23.8735 200.567C23.2898 200.049 22.7644 199.465 22.2057 198.897C21.6471 198.33 21.1552 197.712 20.6298 197.111C20.0968 196.506 19.6064 195.865 19.1622 195.192C17.2751 192.473 15.6793 189.564 14.4009 186.511L14.1006 186.611L14.1674 186.803V186.853C14.0757 186.787 14.7176 186.645 14.4675 186.737V186.645L14.3174 186.252L14.009 185.485L13.4335 183.932C13.0582 182.889 12.708 181.82 12.3828 180.744C11.7407 178.59 11.1987 176.37 10.7568 174.067C9.87448 169.445 9.43881 164.749 9.45592 160.044C9.45592 158.375 9.45608 156.639 9.62286 154.961C9.68957 154.127 9.74791 153.292 9.80628 152.457C9.86465 151.623 9.98979 150.788 10.0732 149.953H9.74786C9.4977 150.012 10.1899 150.112 10.0732 149.953V149.862V149.745V149.519L10.1397 149.06L10.2816 148.142C10.3817 147.533 10.4817 146.924 10.5984 146.323C10.8236 145.112 11.082 143.919 11.3655 142.742C11.9211 140.4 12.6116 138.093 13.4335 135.831C14.9885 131.471 17.1743 127.362 19.921 123.637C19.971 123.57 20.0045 123.52 20.0629 123.453L19.7709 123.345L19.1288 124.572L20.0378 123.503L21.4553 121.834C21.914 121.275 22.456 120.799 22.9563 120.282C23.9365 119.263 25.024 118.353 26.2 117.569C27.3383 116.79 28.5505 116.124 29.819 115.582L30.7779 115.24C31.1031 115.14 31.4284 115.065 31.7537 114.973C32.3954 114.787 33.0466 114.637 33.7048 114.522V114.23H33.5881V114.522C35.0631 114.326 36.5575 114.326 38.0325 114.522L38.0826 114.247L37.6656 114.172L37.6239 114.447L38.7664 114.648L39.8838 114.948L40.976 115.249L42.0351 115.641C42.7272 115.933 43.361 116.325 44.0114 116.676C44.6564 117.022 45.2802 117.407 45.8793 117.828C46.4638 118.239 47.0209 118.688 47.547 119.171C48.089 119.631 48.5808 120.131 49.0728 120.632C49.5648 121.133 50.0653 121.592 50.4822 122.126C50.8888 122.673 51.3257 123.197 51.7912 123.695C54.9537 127.994 57.3801 132.789 58.9709 137.884C59.6721 139.962 60.2568 142.077 60.7221 144.219C60.9389 145.21 61.1223 146.161 61.2724 147.074C61.4225 147.984 61.5726 148.843 61.706 149.67C62.1396 152.967 62.2981 155.512 62.3648 157.298C62.3648 158.133 62.4063 158.842 62.423 159.293C62.4397 159.744 62.423 159.978 62.423 159.978C62.423 159.978 62.423 159.744 62.423 159.293C62.423 158.842 62.423 158.175 62.423 157.298C62.3556 154.741 62.1581 152.19 61.831 149.653C61.6976 148.829 61.5558 147.961 61.4057 147.049C61.264 146.131 61.0889 145.179 60.8721 144.186C60.42 142.034 59.8436 139.911 59.146 137.826C57.5673 132.691 55.1438 127.856 51.9749 123.52C51.5161 123.029 51.0846 122.514 50.6823 121.976C50.2333 121.443 49.7574 120.933 49.2565 120.448C48.7728 119.948 48.2724 119.439 47.7221 118.971C47.1933 118.485 46.6365 118.031 46.0543 117.611C45.4497 117.184 44.8205 116.794 44.1698 116.442C43.5111 116.092 42.8774 115.691 42.1686 115.391L41.0929 114.99L39.9754 114.681L38.8496 114.372L37.6907 114.172L37.6489 114.447L38.0575 114.522L38.1076 114.247C36.6105 114.047 35.0935 114.047 33.5965 114.247V114.539H33.7215V114.247C33.052 114.363 32.3895 114.517 31.737 114.706C31.4034 114.798 31.0697 114.873 30.7445 114.973L29.7689 115.324C28.4794 115.87 27.2476 116.544 26.0917 117.335C24.896 118.126 23.7912 119.047 22.7978 120.081C22.2974 120.599 21.7472 121.083 21.2803 121.642L19.8544 123.311L20.1211 123.47L19.8294 123.361C19.7754 123.428 19.7251 123.498 19.6791 123.57C16.9107 127.326 14.7029 131.464 13.125 135.856C12.3016 138.127 11.6083 140.442 11.0487 142.792C10.7569 143.986 10.4984 145.179 10.2733 146.398C10.1566 146.999 10.0564 147.608 9.95632 148.226L9.81463 149.144L9.74786 149.603V149.837V149.945V150.029C9.88961 150.029 9.9064 150.029 10.0648 150.029L9.73951 149.987C9.65612 150.821 9.56434 151.656 9.47262 152.491C9.38089 153.325 9.34756 154.16 9.28919 154.995C9.14743 156.664 9.12245 158.383 9.11411 160.094C9.09976 164.819 9.53822 169.534 10.4233 174.175C10.8667 176.427 11.4233 178.656 12.0911 180.852C12.4191 181.937 12.7693 183.006 13.1417 184.057C13.3419 184.575 13.5336 185.101 13.7338 185.618L14.034 186.386L14.1757 186.77V186.87C13.9172 186.97 14.5592 186.812 14.4675 186.753V186.703L14.4009 186.511L14.1006 186.611C15.3922 189.692 17.002 192.629 18.9037 195.375C19.3556 196.052 19.8514 196.699 20.388 197.312C20.9216 197.913 21.3969 198.564 21.9806 199.114C22.5643 199.665 23.0896 200.266 23.6483 200.784C23.9485 201.042 24.2321 201.318 24.5406 201.56C24.6872 201.693 24.8433 201.816 25.0076 201.927L25.1326 202.011C25.0742 202.061 25.2327 201.936 25.1326 202.011L25.3327 201.785H25.2745L25.0327 201.627L24.8659 201.877C25.9333 202.587 26.9755 203.321 28.0845 203.947C29.18 204.566 30.3558 205.029 31.5784 205.324C32.1788 205.474 32.7626 205.675 33.3713 205.767C33.9765 205.876 34.591 205.923 35.2058 205.909C35.8061 205.909 36.4148 205.909 37.0152 205.909C37.6126 205.874 38.2066 205.793 38.7914 205.666C39.9254 205.404 41.0398 205.064 42.1269 204.648C42.6605 204.423 43.1524 204.122 43.6611 203.814C44.1689 203.57 44.6593 203.291 45.1287 202.979L46.5047 202.027C46.9546 201.704 47.3835 201.353 47.7888 200.976C48.6007 200.269 49.3692 199.513 50.0903 198.714C50.7991 197.929 51.4745 197.136 52.0999 196.31C52.7253 195.484 53.2756 194.641 53.7676 193.806C54.8081 192.203 55.736 190.53 56.5444 188.798C57.9836 185.731 59.1445 182.541 60.0132 179.266C61.258 174.653 62.0236 169.923 62.298 165.152C62.4481 161.755 62.3731 159.969 62.3731 159.969Z" fill="#455A64"/>
<path d="M51.7163 123.437C51.7163 123.437 51.7163 123.437 51.7163 123.37C51.7264 123.364 51.738 123.361 51.7497 123.361C51.7614 123.361 51.7727 123.364 51.7828 123.37C51.7868 123.353 51.7868 123.336 51.7828 123.32L51.6579 123.545H51.5245C51.5245 123.545 51.5661 123.545 51.5994 123.545C51.6328 123.545 51.5995 123.453 51.6495 123.462C51.66 123.457 51.6714 123.455 51.6829 123.455C51.6944 123.455 51.7058 123.457 51.7163 123.462C51.7163 123.462 51.7163 123.462 51.758 123.462C51.7997 123.462 51.758 123.37 51.758 123.337C51.758 123.303 51.758 123.278 51.758 123.228H51.6245L51.5078 123.453H51.5579C51.5695 123.459 51.5823 123.462 51.5954 123.462C51.6084 123.462 51.6212 123.459 51.6328 123.453C51.6328 123.453 51.7246 123.453 51.7163 123.437Z" fill="#455A64"/>
<path d="M67.5264 159.969C67.5264 159.969 67.5264 159.043 67.5264 157.29C67.5264 155.537 67.3596 152.942 66.951 149.628C66.4481 145.601 65.6114 141.623 64.4495 137.734C62.9668 132.565 60.769 127.629 57.9202 123.069C56.2416 120.426 54.2418 118 51.9665 115.85C49.4864 113.501 46.5831 111.646 43.4111 110.383C40.0027 109.041 36.302 108.618 32.6791 109.156C28.8538 109.789 25.238 111.338 22.1392 113.671C18.9111 116.136 16.1323 119.141 13.9255 122.552C11.6104 126.087 9.71319 129.88 8.2719 133.853C5.27477 142.225 3.7678 151.059 3.8192 159.953C3.73284 168.85 5.23501 177.692 8.25521 186.061C9.6988 190.033 11.6019 193.823 13.9255 197.353C16.1495 200.754 18.929 203.756 22.1475 206.234C25.2219 208.605 28.8442 210.161 32.6791 210.758C36.2985 211.336 40.0068 210.924 43.4111 209.564C46.5672 208.287 49.4552 206.426 51.9248 204.081C54.2066 201.922 56.2197 199.495 57.9202 196.853C60.8053 192.309 63.029 187.376 64.5244 182.204C65.6614 178.31 66.4787 174.33 66.9677 170.302C67.3847 166.964 67.5097 164.401 67.5597 162.649C67.5597 161.764 67.5597 161.096 67.5597 160.645C67.5597 161.096 67.5597 161.772 67.5013 162.64C67.4346 164.393 67.2845 166.98 66.8509 170.286C66.3392 174.303 65.5026 178.272 64.3493 182.154C62.8487 187.302 60.6221 192.209 57.7368 196.727C56.0356 199.339 54.0253 201.735 51.7497 203.864C49.3021 206.186 46.4392 208.027 43.3109 209.289C39.9489 210.62 36.2909 211.021 32.7209 210.449C28.9362 209.853 25.3628 208.311 22.3309 205.967C19.146 203.514 16.3925 200.547 14.1841 197.186C11.8774 193.674 9.98845 189.903 8.55549 185.952C5.55421 177.619 4.06045 168.818 4.14431 159.961C4.09399 151.107 5.59551 142.313 8.58053 133.978C10.0066 130.026 11.8871 126.253 14.1841 122.736C16.37 119.356 19.1201 116.377 22.3143 113.93C25.3729 111.621 28.9426 110.083 32.7209 109.448C36.2952 108.915 39.9465 109.329 43.3109 110.65C46.443 111.898 49.3097 113.73 51.7581 116.05C54.0217 118.186 56.0155 120.591 57.6951 123.211C60.5531 127.749 62.7675 132.662 64.2744 137.809C65.4298 141.685 66.2665 145.649 66.776 149.661C67.2096 153 67.3511 155.554 67.4179 157.307C67.4179 158.141 67.4679 158.851 67.4763 159.302L67.5264 159.969Z" fill="#455A64"/>
<path d="M37.9909 114.356C37.9909 114.356 38.0408 114.356 38.0408 114.397C38.0408 114.439 37.9492 114.464 37.9742 114.472C37.9708 114.489 37.9708 114.506 37.9742 114.523L38.0324 114.197C38.0324 114.197 38.0991 114.264 38.0324 114.297C37.9657 114.331 38.0326 114.297 37.9658 114.297C37.8991 114.297 37.9158 114.297 37.9074 114.297C37.8991 114.297 37.9574 114.389 37.9074 114.389V114.556L37.9658 114.23C37.9658 114.23 37.9658 114.23 37.9658 114.272C37.9658 114.314 37.8824 114.272 37.8907 114.347C37.8991 114.422 37.9659 114.356 37.9909 114.356Z" fill="#455A64"/>
<path d="M19.871 123.362C19.8296 123.432 19.779 123.496 19.7208 123.554C19.6541 123.654 19.8043 123.503 19.871 123.362Z" fill="#263238"/>
<path d="M19.8711 123.361C19.8711 123.361 19.871 123.42 19.796 123.361C19.7209 123.303 19.7542 123.361 19.7292 123.361H19.6543C19.695 123.349 19.7386 123.349 19.7793 123.361C19.896 123.445 19.8626 123.453 19.8793 123.512V123.578C19.9626 123.462 19.9794 123.345 19.9377 123.295C19.8922 123.29 19.8463 123.297 19.8041 123.314C19.7619 123.332 19.7247 123.359 19.6958 123.395C19.6958 123.395 19.6958 123.395 19.6958 123.453C19.6958 123.512 19.6959 123.528 19.796 123.603C19.8361 123.62 19.8809 123.62 19.921 123.603H19.9627C19.9611 123.584 19.9611 123.565 19.9627 123.545C19.9695 123.509 19.9695 123.472 19.9627 123.437C19.9627 123.395 19.9627 123.395 19.9627 123.328C19.9627 123.261 19.8711 123.345 19.8711 123.361Z" fill="#455A64"/>
<path d="M33.6299 114.331C33.8717 114.331 34.2303 114.281 33.6299 114.331V114.331Z" fill="#263238"/>
<path d="M33.6298 114.331C33.6298 114.331 33.6964 114.331 33.7047 114.381C33.7131 114.431 33.7047 114.423 33.7047 114.439C33.7404 114.448 33.7776 114.448 33.8132 114.439H33.9132L33.7799 114.347L33.8715 114.114C33.8092 114.124 33.7496 114.147 33.6964 114.18C33.6964 114.18 33.6964 114.247 33.6964 114.272C33.6667 114.282 33.6345 114.282 33.6048 114.272C33.6048 114.272 33.6631 114.356 33.7298 114.364C33.8228 114.388 33.9203 114.388 34.0134 114.364L34.105 114.13L33.98 114.039H33.8798H33.8216H33.7131L33.6131 114.122C33.5881 114.339 33.6131 114.339 33.6298 114.331Z" fill="#455A64"/>
<path d="M127.189 158.642H69.5527V162.423H127.189V158.642Z" fill="#263238"/>
<path d="M77.7662 78.2069L74.5641 54.8367C72.6744 56.634 71.1706 58.7981 70.1446 61.1967C68.7186 64.8441 63.874 90.1758 63.3319 92.0788C62.7899 93.9818 50.824 119.389 50.824 119.389L59.3544 119.48L75.7898 93.648L77.7662 78.2069Z" fill="#F2C5B1"/>
<path d="M38.4828 114.089C37.4988 101.452 40.5258 98.948 43.7112 97.4623L43.9864 97.3371C46.488 96.1269 49.2982 96.1936 51.558 96.2437C54.3764 96.3105 59.4545 96.3772 64.3743 96.444C69.2941 96.5108 93.6096 96.7195 96.4531 96.7862L96.3615 100.567C93.543 100.5 69.2357 100.292 64.3243 100.225C59.4128 100.158 54.318 100.091 51.4745 100.025C49.5232 100.025 47.3052 99.9329 45.6374 100.742L45.3121 100.901C43.7528 101.619 41.4014 102.712 42.2602 113.796L38.4828 114.089Z" fill="#E0E0E0"/>
<path d="M38.4829 114.089H38.6997H39.4003L42.252 113.897H42.3021V113.847C42.3021 113.304 42.2353 112.686 42.1936 112.01C42.1519 111.334 42.1436 110.591 42.1936 109.799C42.1429 107.966 42.328 106.134 42.7441 104.348C42.9756 103.301 43.5367 102.356 44.345 101.652C44.8151 101.318 45.3214 101.038 45.8544 100.818C46.4033 100.58 46.9807 100.414 47.5722 100.325C48.8408 100.159 50.122 100.112 51.3995 100.183L55.5688 100.25L64.5913 100.4L74.4975 100.517L96.4365 100.768H96.6032V100.601C96.6032 99.5991 96.6534 98.5224 96.6784 97.4373C96.6784 97.2287 96.6784 97.02 96.6784 96.8197V96.6528H96.5116L68.6189 96.369L56.4027 96.1937L50.8993 96.1102C49.194 96.0322 47.4859 96.1838 45.821 96.561C45.0489 96.7599 44.2999 97.0397 43.5863 97.3956C42.8972 97.71 42.2478 98.105 41.6517 98.5725C40.5804 99.4518 39.7677 100.606 39.3001 101.911C38.882 103.039 38.602 104.213 38.4662 105.408C38.3897 105.931 38.3396 106.458 38.3162 106.986C38.3162 107.487 38.2411 107.962 38.2494 108.421C38.2578 108.88 38.2494 109.298 38.2494 109.698C38.2494 110.099 38.2494 110.475 38.2494 110.825C38.2494 111.518 38.2495 112.119 38.3329 112.595C38.4163 113.07 38.3997 113.429 38.4247 113.68C38.4497 113.93 38.4247 114.039 38.4247 114.039C38.4247 114.039 38.4247 113.905 38.4247 113.655C38.4247 113.404 38.4247 113.045 38.3746 112.578C38.3246 112.111 38.3245 111.526 38.3162 110.825C38.3162 110.475 38.3162 110.099 38.3162 109.698C38.3162 109.298 38.3162 108.864 38.3162 108.421C38.3162 107.979 38.3163 107.495 38.3997 106.994C38.4286 106.471 38.4842 105.95 38.5664 105.433C38.7003 104.251 38.9804 103.091 39.4003 101.978C39.8534 100.692 40.6528 99.557 41.7101 98.6977C42.293 98.2376 42.9318 97.8534 43.6113 97.5542C44.3093 97.1958 45.0447 96.9158 45.8043 96.7195C47.4459 96.3575 49.1286 96.2171 50.8075 96.3022L56.3194 96.394L68.477 96.5776L96.3616 96.8865L96.203 96.7195V97.3372C96.203 98.4222 96.1531 99.4989 96.1364 100.501L96.3032 100.342L74.3641 100.117L64.4496 100.025L55.4355 99.8996L51.2661 99.8411C49.974 99.7778 48.6788 99.8337 47.3969 100.008C46.7874 100.102 46.193 100.276 45.6292 100.526C45.0805 100.74 44.5597 101.021 44.0781 101.36C43.2326 102.092 42.6473 103.079 42.4104 104.173C42.0015 105.976 41.8278 107.825 41.8935 109.673C41.8935 110.508 41.9353 111.217 41.9603 111.894C41.9853 112.57 42.0519 113.179 42.0936 113.73V113.68L39.2751 113.922L38.5664 113.988L38.4829 114.089Z" fill="#263238"/>
<path d="M125.313 56.9233H95.9444C91.4819 56.9233 87.8643 60.5444 87.8643 65.0111V127.385C87.8643 131.851 91.4819 135.472 95.9444 135.472H125.313C129.776 135.472 133.393 131.851 133.393 127.385V65.0111C133.393 60.5444 129.776 56.9233 125.313 56.9233Z" fill="#455A64"/>
<path d="M129.174 59.9863C129.266 59.9863 129.341 76.7628 129.341 97.4622C129.341 118.162 129.266 134.946 129.174 134.946C129.082 134.946 129.007 118.17 129.007 97.4622C129.007 76.7545 129.082 59.9863 129.174 59.9863Z" fill="#263238"/>
<path d="M30.5862 137.467H26.8088V192.07H30.5862V137.467Z" fill="#E0E0E0"/>
<path d="M23.7901 181.328C20.8759 181.328 18.0272 182.193 15.6042 183.814C13.1811 185.434 11.2925 187.738 10.1773 190.432C9.0621 193.127 8.77024 196.093 9.33877 198.954C9.9073 201.815 11.3106 204.442 13.3713 206.505C15.4319 208.568 18.0574 209.972 20.9156 210.541C23.7738 211.11 26.7363 210.818 29.4287 209.702C32.121 208.586 34.4221 206.695 36.0412 204.27C37.6602 201.845 38.5244 198.993 38.5244 196.076C38.5244 194.14 38.1434 192.222 37.4029 190.432C36.6624 188.643 35.5772 187.017 34.2089 185.648C32.8407 184.278 31.2163 183.192 29.4287 182.451C27.641 181.71 25.7251 181.328 23.7901 181.328ZM23.7901 204.932C22.0383 204.932 20.3257 204.412 18.8692 203.438C17.4127 202.463 16.2776 201.078 15.6076 199.458C14.9376 197.838 14.7628 196.055 15.1052 194.336C15.4476 192.616 16.2917 191.037 17.531 189.797C18.7704 188.558 20.3492 187.714 22.0676 187.373C23.786 187.032 25.5668 187.209 27.1848 187.881C28.8028 188.553 30.1852 189.691 31.1573 191.15C32.1293 192.608 32.6473 194.323 32.6456 196.076C32.6467 197.241 32.4185 198.394 31.9738 199.47C31.5292 200.546 30.877 201.523 30.0545 202.347C29.2319 203.17 28.2552 203.823 27.1803 204.268C26.1054 204.713 24.9534 204.942 23.7901 204.94V204.932Z" fill="#455A64"/>
<path d="M32.6458 196.085C32.5788 196.807 32.4647 197.523 32.304 198.23C31.7978 200.147 30.6609 201.838 29.0769 203.029C27.9149 203.909 26.5509 204.482 25.1099 204.696C23.669 204.911 22.1973 204.759 20.8301 204.256C19.2152 203.667 17.8108 202.613 16.7941 201.226C15.6995 199.736 15.1092 197.935 15.1092 196.085C15.1092 194.235 15.6995 192.434 16.7941 190.943C17.301 190.23 17.9206 189.604 18.6285 189.09C19.2973 188.585 20.0399 188.185 20.8301 187.905C21.9763 187.489 23.1966 187.317 24.4131 187.4C25.6295 187.483 26.8153 187.818 27.8949 188.385C28.9745 188.952 29.9244 189.738 30.6835 190.693C31.4427 191.648 31.9945 192.751 32.304 193.931C32.4658 194.641 32.58 195.36 32.6458 196.085C32.6567 195.896 32.6567 195.706 32.6458 195.517C32.6474 195.288 32.6306 195.059 32.5958 194.833C32.5669 194.52 32.5111 194.21 32.429 193.906C32.1343 192.69 31.5869 191.549 30.8226 190.559C30.0582 189.568 29.0941 188.75 27.9928 188.157C26.8916 187.564 25.678 187.21 24.431 187.118C23.1839 187.025 21.9313 187.197 20.7549 187.621C19.9357 187.909 19.1652 188.32 18.4702 188.84C17.7341 189.369 17.0891 190.015 16.5606 190.751C15.4178 192.294 14.801 194.164 14.801 196.085C14.801 198.006 15.4178 199.875 16.5606 201.418C17.0933 202.149 17.7377 202.791 18.4702 203.321C19.1632 203.847 19.9341 204.261 20.7549 204.548C22.2669 205.091 23.897 205.218 25.4747 204.915C27.1559 204.591 28.7081 203.789 29.9458 202.605C31.1835 201.42 32.0542 199.905 32.4541 198.238C32.5354 197.935 32.5912 197.625 32.6208 197.312C32.655 197.085 32.6718 196.856 32.6709 196.627C32.6727 196.446 32.6643 196.265 32.6458 196.085Z" fill="#263238"/>
<path d="M38.5245 196.085C38.5336 196.004 38.5336 195.923 38.5245 195.843C38.5245 195.67 38.5245 195.436 38.5245 195.142V194.624C38.5245 194.432 38.4744 194.223 38.441 193.998C38.3881 193.479 38.2934 192.966 38.1577 192.462C37.8308 191.069 37.2906 189.734 36.5565 188.506C35.5945 186.863 34.3229 185.423 32.8125 184.266C30.8381 182.745 28.512 181.748 26.0499 181.367C23.5878 180.986 21.0695 181.234 18.7286 182.088C17.3746 182.56 16.1029 183.241 14.9595 184.107C14.3751 184.552 13.8181 185.031 13.2918 185.543C12.7679 186.086 12.2804 186.663 11.8325 187.271C10.9066 188.517 10.1859 189.903 9.69775 191.377C9.20723 192.896 8.94866 194.48 8.93066 196.076C8.94782 197.675 9.2064 199.262 9.69775 200.784C10.1826 202.259 10.9036 203.646 11.8325 204.89C12.2783 205.499 12.7659 206.077 13.2918 206.618C13.8163 207.132 14.3734 207.611 14.9595 208.054C15.5406 208.485 16.1507 208.875 16.7856 209.222C17.4148 209.542 18.0638 209.82 18.7286 210.057C21.0659 210.906 23.5797 211.152 26.0371 210.771C28.4945 210.391 30.8163 209.396 32.7876 207.878C34.2981 206.721 35.5696 205.281 36.5317 203.638C37.2671 202.411 37.8072 201.076 38.1326 199.682C38.2691 199.179 38.364 198.665 38.4162 198.146C38.4162 197.921 38.4828 197.712 38.4995 197.529V197.003C38.4995 196.713 38.4995 196.48 38.4995 196.302C38.5089 196.224 38.5089 196.146 38.4995 196.068C38.4902 196.146 38.4902 196.224 38.4995 196.302C38.4995 196.48 38.4827 196.713 38.4494 197.003C38.4494 197.161 38.4494 197.328 38.4494 197.52C38.4494 197.712 38.3911 197.913 38.3578 198.13C38.2887 198.643 38.1827 199.151 38.0408 199.649C37.6879 201.026 37.1254 202.34 36.3731 203.546C34.6306 206.458 31.9302 208.672 28.7349 209.808C25.5397 210.944 22.049 210.932 18.8619 209.773C18.2087 209.542 17.5732 209.263 16.9607 208.938C16.3366 208.602 15.7401 208.217 15.1763 207.787C14.588 207.359 14.0307 206.891 13.5086 206.384C12.999 205.858 12.5228 205.301 12.0827 204.715C11.1763 203.499 10.4749 202.143 10.0064 200.7C9.01149 197.721 9.01149 194.499 10.0064 191.519C10.4784 190.078 11.1795 188.722 12.0827 187.504C12.5228 186.919 12.999 186.361 13.5086 185.835C14.0368 185.336 14.5936 184.868 15.1763 184.433C15.7401 184.003 16.3366 183.618 16.9607 183.281C17.5748 182.96 18.21 182.681 18.8619 182.446C22.0489 181.297 25.5355 181.288 28.7282 182.422C31.921 183.555 34.6225 185.762 36.3731 188.665C37.1254 189.871 37.6879 191.185 38.0408 192.562C38.1827 193.061 38.2887 193.568 38.3578 194.082C38.3578 194.307 38.4327 194.507 38.4494 194.699C38.4661 194.891 38.4494 195.058 38.4494 195.208C38.4494 195.509 38.4911 195.734 38.4995 195.909C38.5032 195.968 38.5116 196.027 38.5245 196.085Z" fill="#263238"/>
<path d="M23.7737 205.75C21.9111 205.748 20.0894 205.204 18.5309 204.183C16.9723 203.163 15.7445 201.71 14.9973 200.002C14.2502 198.294 14.016 196.406 14.3235 194.567C14.6309 192.728 15.4668 191.019 16.7288 189.648C17.9907 188.277 19.6244 187.303 21.43 186.846C23.2357 186.389 25.1353 186.468 26.8968 187.074C28.6583 187.679 30.2054 188.785 31.3493 190.257C32.4932 191.728 33.1842 193.501 33.3381 195.359C33.4442 196.616 33.3013 197.882 32.9175 199.083C32.5336 200.285 31.9164 201.399 31.1013 202.361C30.2863 203.324 29.2895 204.116 28.1679 204.691C27.0464 205.267 25.8222 205.616 24.5658 205.717C24.324 205.742 24.0488 205.75 23.7737 205.75ZM23.7737 188.222C23.5487 188.21 23.3231 188.21 23.0982 188.222C21.5337 188.361 20.0451 188.96 18.8201 189.944C17.5952 190.928 16.6886 192.252 16.2147 193.751C15.7408 195.25 15.7208 196.856 16.1571 198.366C16.5934 199.876 17.4667 201.223 18.6666 202.238C19.8666 203.252 21.3398 203.888 22.9003 204.065C24.4608 204.243 26.039 203.954 27.4359 203.236C28.8327 202.517 29.9858 201.401 30.7497 200.027C31.5137 198.653 31.8544 197.084 31.7288 195.517C31.5638 193.524 30.6575 191.665 29.1891 190.308C27.7207 188.951 25.7972 188.195 23.7987 188.189L23.7737 188.222Z" fill="#E0E0E0"/>
<path d="M16.6708 190.679L15.7825 192.032L30.5631 201.754L31.4514 200.4L16.6708 190.679Z" fill="#E0E0E0"/>
<path d="M18.4283 203.204L17.2109 202.128L23.048 195.534L27.0673 191.002L28.3932 189.516C29.0269 188.815 29.3687 188.431 29.9608 188.815L29.0518 190.159L29.5104 189.491L30.0693 190.075C29.719 190.426 22.8979 198.121 18.4283 203.204Z" fill="#E0E0E0"/>
<path d="M23.4956 187.668L21.887 187.84L23.7135 204.92L25.3222 204.747L23.4956 187.668Z" fill="#E0E0E0"/>
<path d="M32.4618 194.571L14.9788 196.04L15.1141 197.654L32.5971 196.184L32.4618 194.571Z" fill="#E0E0E0"/>
<path d="M15.8184 181.846L23.7317 195.718L39.1081 193.305C39.1081 193.305 36.9235 174.885 15.8184 181.846Z" fill="#263238"/>
<path d="M70.8702 104.632L122.128 112.77C122.036 110.666 117.959 107.453 114.073 94.808L118.55 59.9863L109.828 47.1577L102.782 45.5969L98.7295 47.3246C96.7077 48.1848 94.5181 48.5775 92.3237 48.4735C90.1292 48.3694 87.9864 47.7713 86.0548 46.7237L80.7182 48.2678C78.4334 48.7603 75.0061 49.8703 73.4968 51.5563C72.6629 52.4745 72.3044 53.8433 71.2871 55.4124C68.9773 59.0098 64.3159 76.4373 64.3159 76.4373L74.2307 78.5239C75.0645 82.5052 76.2653 88.6483 77.7579 96.6693L70.8702 104.632Z" fill="white"/>
<path d="M76.5487 61.0215C76.4007 61.2465 76.2722 61.4838 76.165 61.7309C75.9398 62.19 75.6396 62.8744 75.3311 63.7425C74.4593 65.9927 73.8982 68.3515 73.6634 70.7535C73.4283 73.1627 73.5323 75.593 73.972 77.9733C74.1471 78.883 74.314 79.6426 74.4641 80.11C74.5189 80.3717 74.6027 80.6264 74.7141 80.8695C74.7724 80.8695 74.489 79.7511 74.1972 77.9315C73.8316 75.5679 73.7616 73.1679 73.9887 70.7869C74.2446 68.4085 74.782 66.069 75.5897 63.8176C75.8982 62.9829 76.1652 62.2568 76.357 61.781C76.4473 61.5353 76.5115 61.2807 76.5487 61.0215Z" fill="#263238"/>
<path d="M109.795 47.1577C109.795 47.1577 115.582 47.9924 119.109 52.391C124.112 58.6843 130.308 69.2843 130.308 69.2843L114.089 77.8312C114.089 77.8312 107.027 65.3114 105.084 57.2987C103.983 52.7332 109.261 48.0842 109.795 47.1577Z" fill="white"/>
<path d="M130.308 69.2846C130.192 69.319 130.08 69.3666 129.974 69.4264L129.066 69.8688L125.73 71.5381L114.848 77.2638L114.556 77.4224L114.773 77.4892L111.546 71.6466C110.562 69.8521 109.628 68.308 108.944 66.8974L107.343 63.6173L106.893 62.7826C106.785 62.5823 106.726 62.4738 106.71 62.4821C106.738 62.5953 106.78 62.7046 106.835 62.8077C106.935 63.0497 107.068 63.3502 107.227 63.7174C107.577 64.502 108.061 65.6455 108.736 67.056C109.411 68.4666 110.32 70.0524 111.288 71.8469L114.481 77.6895L114.565 77.8314L114.707 77.7563L114.998 77.5977L125.839 71.7551L129.107 69.9606L129.991 69.4598C130.101 69.4094 130.207 69.3508 130.308 69.2846Z" fill="#263238"/>
<path d="M19.0536 170.369L19.7375 186.703C19.7375 186.703 3.37698 192.888 3.21021 195.884L34.8971 195.692V170.194L19.0536 170.369Z" fill="#E9DAD3"/>
<path d="M29.5689 185.268C29.8753 185.359 30.1374 185.56 30.305 185.833C30.4727 186.105 30.5342 186.43 30.4779 186.745C30.3969 187.053 30.2018 187.318 29.9323 187.487C29.6627 187.656 29.339 187.716 29.027 187.655C28.7035 187.556 28.4277 187.341 28.2523 187.052C28.077 186.762 28.0143 186.418 28.0762 186.086C28.1913 185.773 28.4237 185.516 28.724 185.372C29.0244 185.227 29.3691 185.204 29.6855 185.309" fill="#E0E0E0"/>
<g opacity="0.6">
<path d="M34.9054 195.726L34.8055 193.155L4.4527 194.307C4.4527 194.307 3.04348 194.924 3.21025 195.918L34.9054 195.726Z" fill="white"/>
</g>
<path d="M19.2206 186.545C19.2206 186.703 20.0043 186.77 20.7715 187.263C21.5386 187.755 21.9389 188.406 22.0807 188.339C22.2224 188.273 21.989 187.388 21.0551 186.804C20.1211 186.219 19.1872 186.403 19.2206 186.545Z" fill="#263238"/>
<path d="M15.9102 187.947C15.9102 188.097 16.5438 188.356 17.0775 189.007C17.6112 189.658 17.7613 190.351 17.9113 190.342C18.0614 190.334 18.1615 189.458 17.4861 188.673C16.8106 187.889 15.9102 187.797 15.9102 187.947Z" fill="#263238"/>
<path d="M14.0421 191.937C14.1838 191.937 14.3924 191.194 13.9922 190.351C13.5919 189.508 12.8663 189.165 12.7996 189.299C12.7329 189.433 13.1833 189.875 13.5085 190.576C13.8337 191.277 13.892 191.92 14.0421 191.937Z" fill="#263238"/>
<path d="M19.4789 182.805C19.5457 182.947 20.2544 182.73 21.1467 182.805C22.0389 182.881 22.706 183.131 22.8144 182.997C22.9228 182.864 22.2391 182.321 21.2051 182.271C20.1711 182.221 19.4039 182.689 19.4789 182.805Z" fill="#263238"/>
<path d="M98.5461 115.057L83.9201 113.137C83.9201 113.137 53.4091 107.219 37.9826 105.375C35.1898 105.012 32.358 105.08 29.5856 105.575C23.9153 106.677 20.0294 112.069 19.2789 120.365C18.9037 124.538 18.0198 180.46 18.0198 180.46L37.4739 180.318L42.8523 129.671L64.0409 136.566L94.9688 136.466C98.7796 133.594 98.5461 115.057 98.5461 115.057Z" fill="#263238"/>
<path d="M43.0191 119.389C43.0507 119.666 43.0507 119.946 43.0191 120.223C43.0191 120.741 42.9274 121.484 42.8273 122.402C42.6272 124.238 42.2937 126.767 41.8935 129.546C41.4932 132.326 41.1012 134.846 40.7927 136.666C40.6426 137.576 40.5092 138.335 40.4092 138.819C40.3701 139.086 40.3087 139.348 40.2257 139.604C40.2196 139.324 40.2449 139.044 40.3009 138.769C40.3759 138.202 40.4759 137.476 40.5926 136.608C40.8678 134.73 41.2263 132.234 41.6182 129.471C42.0101 126.709 42.3603 124.221 42.6272 122.343C42.7439 121.509 42.8357 120.741 42.9108 120.182C42.9257 119.915 42.9619 119.65 43.0191 119.389Z" fill="#455A64"/>
<path d="M46.7382 121.726C46.708 122.088 46.6118 122.441 46.4546 122.769C46.1227 123.584 45.664 124.342 45.0955 125.014C44.5345 125.69 43.8702 126.273 43.1275 126.742C42.8289 126.953 42.496 127.111 42.1436 127.209C43.1508 126.534 44.0721 125.738 44.887 124.839C45.6277 123.88 46.2493 122.835 46.7382 121.726Z" fill="#455A64"/>
<path d="M41.9268 170.252L42.3103 186.595C42.3103 186.595 25.8415 192.479 25.6331 195.509L57.3199 195.901L57.7619 170.402L41.9268 170.252Z" fill="#E9DAD3"/>
<path d="M52.1332 185.343C52.4368 185.441 52.6937 185.647 52.8551 185.923C53.0165 186.198 53.0713 186.524 53.0088 186.837C52.9141 187.135 52.7102 187.387 52.4382 187.542C52.1661 187.697 51.8459 187.743 51.5412 187.671C51.2186 187.571 50.945 187.353 50.7739 187.062C50.6028 186.77 50.5463 186.425 50.6155 186.094C50.7388 185.774 50.9831 185.516 51.2953 185.375C51.6075 185.235 51.9624 185.223 52.2832 185.343" fill="#E0E0E0"/>
<g opacity="0.6">
<path d="M57.3116 195.901L57.2532 193.33L26.8922 193.915C26.8922 193.915 25.4747 194.507 25.6164 195.509L57.3116 195.901Z" fill="white"/>
</g>
<path d="M41.8016 186.428C41.8016 186.586 42.5772 186.661 43.336 187.171C44.0948 187.68 44.4868 188.339 44.6286 188.272C44.7703 188.206 44.5536 187.321 43.628 186.72C42.7024 186.119 41.7683 186.286 41.8016 186.428Z" fill="#263238"/>
<path d="M38.4578 187.763C38.4578 187.914 39.0916 188.189 39.6086 188.848C40.1256 189.508 40.2674 190.201 40.4425 190.201C40.6176 190.201 40.701 189.316 40.0422 188.531C39.3835 187.747 38.4661 187.613 38.4578 187.763Z" fill="#263238"/>
<path d="M36.5234 191.72C36.6652 191.72 36.8903 190.985 36.5234 190.134C36.1565 189.282 35.4226 188.932 35.3559 189.065C35.2892 189.199 35.7312 189.65 36.0397 190.351C36.3482 191.052 36.3733 191.703 36.5234 191.72Z" fill="#263238"/>
<path d="M42.1269 182.697C42.1936 182.839 42.9024 182.63 43.7946 182.697C44.6868 182.764 45.3456 183.048 45.4623 182.914C45.5791 182.78 44.8952 182.221 43.8612 182.154C42.8272 182.088 42.0768 182.572 42.1269 182.697Z" fill="#263238"/>
<path d="M42.1185 181.695C42.1561 181.805 42.1731 181.921 42.1686 182.038C42.1686 182.296 42.1685 182.63 42.2352 183.022C42.2852 183.915 42.3435 185.134 42.4186 186.595V186.67H42.3437C40.4591 187.429 38.0825 188.406 35.5225 189.491C32.4122 190.843 29.5521 191.995 27.701 193.214C26.9594 193.67 26.2882 194.233 25.7081 194.883C25.5545 195.061 25.4227 195.257 25.316 195.467C25.241 195.617 25.2244 195.701 25.2161 195.701C25.2502 195.371 25.3941 195.062 25.6246 194.824C26.1803 194.131 26.8483 193.536 27.6008 193.063C29.4436 191.77 32.3122 190.601 35.4142 189.249C37.9825 188.164 40.3673 187.204 42.2686 186.478L42.1934 186.586C42.1934 185.117 42.1268 183.907 42.1018 183.014C42.1018 182.613 42.1018 182.288 42.1018 182.029C42.0957 181.918 42.1013 181.806 42.1185 181.695Z" fill="#263238"/>
<path d="M122.128 112.77L107.31 110.758C107.31 110.758 76.3985 104.54 60.7635 102.604C57.9356 102.215 55.0636 102.285 52.2581 102.812C46.5212 103.964 44.5867 110.867 43.6027 115.149C42.6188 119.43 40.3589 182.497 40.3589 182.497L58.7039 182.113L65.6834 128.136L85.1791 134.371H118.634C122.495 131.341 122.128 112.77 122.128 112.77Z" fill="#263238"/>
<path d="M63.2153 103.03C63.1349 103.039 63.0538 103.039 62.9734 103.03L62.2562 102.904C61.6225 102.804 60.6968 102.671 59.4877 102.562C58.0242 102.422 56.5518 102.402 55.0851 102.504C54.6408 102.53 54.1981 102.58 53.7592 102.654L53.0754 102.754L52.375 102.921C51.8885 103.036 51.4094 103.181 50.9406 103.355C50.7071 103.455 50.4738 103.572 50.2403 103.681L49.8818 103.848L49.5481 104.065C48.5925 104.671 47.7466 105.436 47.0465 106.326C46.2981 107.295 45.6709 108.352 45.1787 109.473C44.6442 110.67 44.2281 111.917 43.9362 113.196C43.6163 114.55 43.4126 115.93 43.3275 117.319C43.069 123.053 42.7939 129.363 42.4937 135.982C41.8849 149.211 41.3345 161.196 40.9342 169.877C40.7174 174.209 40.5424 177.714 40.4257 180.151C40.359 181.353 40.309 182.288 40.2757 182.947C40.2757 183.256 40.2339 183.49 40.2256 183.674C40.2308 183.754 40.2308 183.835 40.2256 183.916C40.2204 183.835 40.2204 183.754 40.2256 183.674C40.2256 183.498 40.2256 183.256 40.2256 182.947C40.2256 182.296 40.2838 181.362 40.3255 180.151C40.4256 177.714 40.5674 174.209 40.7425 169.877C41.1177 161.188 41.6431 149.211 42.2268 135.973C42.527 129.354 42.8105 123.053 43.0606 117.319C43.1434 115.911 43.3556 114.514 43.6944 113.146C43.988 111.849 44.4098 110.586 44.9535 109.373C45.4615 108.241 46.1025 107.173 46.8631 106.193C47.5634 105.294 48.4089 104.518 49.3647 103.898L49.7149 103.672L50.0819 103.505C50.3237 103.397 50.5571 103.272 50.7989 103.18C51.2761 103.006 51.7634 102.861 52.2582 102.746L52.9671 102.587L53.659 102.487C54.101 102.417 54.5464 102.369 54.9933 102.345C56.4697 102.257 57.9509 102.293 59.4212 102.454C60.6303 102.579 61.5642 102.729 62.1896 102.854C62.5065 102.913 62.7399 102.963 62.8983 103.005C63.0045 103.002 63.1107 103.011 63.2153 103.03Z" fill="#455A64"/>
<path d="M66.5675 120.398C66.5968 120.676 66.5968 120.956 66.5675 121.233C66.5675 121.751 66.4672 122.493 66.3672 123.412C66.1671 125.248 65.842 127.777 65.4417 130.556C65.0414 133.336 64.6078 135.865 64.3326 137.684C64.1825 138.594 64.0491 139.353 63.9491 139.829C63.9099 140.095 63.8486 140.358 63.7656 140.614C63.7654 140.334 63.7905 140.054 63.8407 139.779C63.9158 139.22 64.0157 138.494 64.1408 137.617C64.4077 135.739 64.7662 133.244 65.1581 130.489C65.55 127.735 65.9086 125.231 66.1671 123.353C66.2838 122.518 66.3839 121.759 66.459 121.191C66.4773 120.925 66.5137 120.66 66.5675 120.398Z" fill="#455A64"/>
<path d="M70.2864 122.736C70.262 123.101 70.1655 123.459 70.0029 123.787C69.6708 124.601 69.2153 125.358 68.6521 126.032C68.0858 126.704 67.4191 127.284 66.6758 127.752C66.3837 127.969 66.0525 128.128 65.7002 128.219C66.704 127.542 67.6224 126.746 68.4353 125.849C69.176 124.89 69.7976 123.845 70.2864 122.736Z" fill="#455A64"/>
<path d="M84.9372 134.262C84.9372 134.329 81.0598 133.11 76.3402 131.533C71.6205 129.955 67.8096 128.612 67.8346 128.545C67.8596 128.478 71.7038 129.697 76.4234 131.274C81.1431 132.852 84.9622 134.187 84.9372 134.262Z" fill="#455A64"/>
<path d="M70.0948 153C70.4592 151.9 71.1655 150.945 72.1106 150.275C73.0558 149.606 74.1901 149.256 75.348 149.278H85.5545V137.467H89.3402V192.079H85.5545V153.067H75.2647C74.9175 153.057 74.5765 153.16 74.2924 153.36C74.0084 153.56 73.7964 153.847 73.6886 154.177V154.235L57.1448 201.285L53.5842 200.033L70.0948 153Z" fill="#E0E0E0"/>
<path d="M70.0947 153L69.7778 153.835L68.8938 156.289L65.5583 165.728L53.4673 199.949L53.4258 200.074L53.5508 200.116L57.1114 201.376H57.2364L57.2865 201.251L66.9761 173.708L72.3378 158.467C72.7964 157.157 73.2633 155.846 73.7219 154.527C73.801 154.203 73.9426 153.896 74.1388 153.626C74.3444 153.384 74.622 153.214 74.931 153.142C75.2697 153.12 75.6097 153.12 75.9485 153.142H85.5794L85.4211 152.983V192.237H89.5236V192.078C89.5236 170.678 89.5238 151.865 89.4737 137.467V137.359H85.4377V137.459C85.4377 141.966 85.4377 145.864 85.4377 149.269L85.5212 149.186H78.1999H75.2646C74.4455 149.178 73.6353 149.357 72.8964 149.711C71.8885 150.186 71.0525 150.962 70.5033 151.932C70.3128 152.254 70.1643 152.599 70.0613 152.958C70.0613 152.958 70.1029 152.875 70.1696 152.7C70.2722 152.438 70.3977 152.187 70.5448 151.948C71.0987 150.999 71.9316 150.244 72.9298 149.787C74.2389 149.077 76.0902 149.344 78.1999 149.303H85.5212H85.6045V149.219C85.6045 145.814 85.6045 141.916 85.6045 137.409L85.4962 137.517H89.282L89.1651 137.4C89.1651 151.798 89.1651 170.611 89.1234 192.012L89.282 191.853H85.4962L85.6629 192.012V152.9H75.865C75.5003 152.886 75.1351 152.899 74.7726 152.942C74.3941 153.028 74.0544 153.236 73.8054 153.534C73.6797 153.683 73.5808 153.852 73.5134 154.035L73.33 154.536C72.8714 155.855 72.4128 157.173 71.9542 158.475C70.1197 163.7 68.3351 168.783 66.6007 173.724C63.1318 183.598 59.8882 192.838 56.9447 201.268L57.1197 201.184L53.5508 199.932L53.6342 200.099L65.6752 165.795L68.9689 156.33C69.3358 155.254 69.6277 154.419 69.8028 153.826C69.9779 153.234 70.0947 153 70.0947 153Z" fill="#263238"/>
<path d="M125.947 138.728H122.37L122.762 104.34H125.947V138.728Z" fill="#E0E0E0"/>
<path d="M118.876 142.258H115.098V169.568H118.876V142.258Z" fill="#263238"/>
<path d="M82.5443 181.328C79.6301 181.328 76.7814 182.193 74.3583 183.814C71.9352 185.434 70.0467 187.738 68.9315 190.432C67.8163 193.127 67.5244 196.093 68.0929 198.954C68.6614 201.815 70.0648 204.442 72.1254 206.505C74.1861 208.568 76.8115 209.972 79.6697 210.541C82.5279 211.11 85.4905 210.818 88.1828 209.702C90.8752 208.586 93.1765 206.695 94.7955 204.27C96.4145 201.845 97.2786 198.993 97.2786 196.076C97.2786 192.165 95.7263 188.414 92.9631 185.648C90.1999 182.882 86.4521 181.328 82.5443 181.328ZM82.5443 204.932C80.7924 204.932 79.08 204.412 77.6235 203.438C76.167 202.463 75.032 201.078 74.362 199.458C73.692 197.838 73.517 196.055 73.8593 194.336C74.2017 192.616 75.0461 191.037 76.2854 189.797C77.5247 188.558 79.1034 187.714 80.8218 187.373C82.5401 187.032 84.3209 187.209 85.939 187.881C87.557 188.553 88.9394 189.691 89.9114 191.15C90.8835 192.608 91.4014 194.323 91.3998 196.076C91.4009 197.241 91.1726 198.394 90.728 199.47C90.2833 200.546 89.6312 201.523 88.8086 202.347C87.9861 203.17 87.0094 203.823 85.9345 204.268C84.8596 204.713 83.7075 204.942 82.5443 204.94V204.932Z" fill="#455A64"/>
<path d="M82.5276 205.75C80.6658 205.745 78.8457 205.198 77.2893 204.175C75.7329 203.153 74.5075 201.698 73.7629 199.99C73.0183 198.282 72.7866 196.394 73.096 194.557C73.4053 192.719 74.2425 191.011 75.5051 189.642C76.7678 188.272 78.4014 187.3 80.2066 186.844C82.0119 186.389 83.9108 186.469 85.6713 187.075C87.4319 187.681 88.9781 188.787 90.1212 190.258C91.2643 191.729 91.9549 193.501 92.1087 195.359C92.215 196.613 92.0733 197.876 91.6916 199.076C91.3099 200.276 90.6956 201.388 89.884 202.35C89.0724 203.312 88.0794 204.105 86.9616 204.682C85.8439 205.26 84.6234 205.611 83.3699 205.717C83.078 205.742 82.8028 205.75 82.5276 205.75ZM82.5276 188.222C82.3027 188.21 82.0771 188.21 81.8522 188.222C80.2877 188.361 78.7993 188.96 77.5743 189.944C76.3494 190.928 75.4428 192.252 74.9689 193.751C74.495 195.25 74.4748 196.856 74.9111 198.366C75.3474 199.876 76.2206 201.223 77.4206 202.238C78.6206 203.252 80.0937 203.888 81.6543 204.065C83.2148 204.243 84.793 203.954 86.1898 203.236C87.5867 202.517 88.7398 201.4 89.5037 200.027C90.2677 198.653 90.6083 197.084 90.4827 195.517C90.3178 193.524 89.4115 191.665 87.9431 190.308C86.4747 188.951 84.5512 188.195 82.5527 188.189L82.5276 188.222Z" fill="#E0E0E0"/>
<path d="M77.6188 179.927L76.729 181.287L91.5855 191.024L92.4753 189.664L77.6188 179.927Z" fill="#E0E0E0"/>
<path d="M77.1825 203.204L75.9648 202.128L81.8019 195.534L85.8212 191.002L87.1471 189.516C87.7725 188.815 88.1226 188.431 88.7063 188.815L87.7975 190.159L88.2643 189.491L88.8232 190.075C88.4729 190.426 81.6686 198.121 77.1825 203.204Z" fill="#E0E0E0"/>
<path d="M82.2579 187.676L80.6494 187.849L82.476 204.928L84.0844 204.756L82.2579 187.676Z" fill="#E0E0E0"/>
<path d="M91.2181 194.566L73.7351 196.035L73.8705 197.649L91.3535 196.179L91.2181 194.566Z" fill="#E0E0E0"/>
<path d="M74.5974 181.846L82.469 195.718L97.8455 193.305C97.8455 193.305 95.6775 174.885 74.5974 181.846Z" fill="#263238"/>
<path d="M41.8683 195.709H0V201.443H41.8683V195.709Z" fill="#455A64"/>
<path d="M57.8285 195.709H25.2244V201.443H57.8285V195.709Z" fill="#263238"/>
<path d="M63.5573 134.429V113.563C63.5617 110.324 64.8496 107.22 67.1383 104.93C69.4269 102.641 72.5294 101.354 75.765 101.352H128.499V105.625H75.765C73.6631 105.63 71.6487 106.467 70.1624 107.955C68.6762 109.443 67.8393 111.459 67.8349 113.563V134.362H131.209C131.795 134.362 132.358 134.595 132.774 135.01C133.19 135.424 133.425 135.987 133.427 136.574V140.046C133.425 140.634 133.19 141.196 132.774 141.611C132.358 142.025 131.795 142.258 131.209 142.258H64.2578C63.7402 142.258 63.2277 142.156 62.7497 141.957C62.2716 141.759 61.8374 141.468 61.4718 141.101C61.1062 140.735 60.8163 140.299 60.619 139.82C60.4217 139.341 60.3207 138.828 60.3218 138.31C60.3207 137.386 60.6442 136.491 61.2357 135.782C61.8271 135.072 62.6489 134.594 63.5573 134.429Z" fill="#E0E0E0"/>
<path d="M63.5573 134.429H63.3655C63.1788 134.47 62.9951 134.523 62.8152 134.588C62.096 134.857 61.4702 135.33 61.0139 135.948C60.6453 136.452 60.3997 137.035 60.2969 137.651C60.1941 138.267 60.2369 138.899 60.4219 139.495C60.6663 140.261 61.1339 140.935 61.7645 141.432C62.4793 141.987 63.3617 142.281 64.2661 142.267L96.6032 142.317H119.068H130.825C131.104 142.33 131.384 142.31 131.659 142.258C132.229 142.128 132.73 141.792 133.068 141.315C133.398 140.824 133.551 140.235 133.502 139.646C133.502 138.544 133.502 137.434 133.502 136.307C133.465 135.705 133.203 135.139 132.768 134.721C132.316 134.3 131.718 134.073 131.1 134.087H127.69H67.7767L67.9351 134.254V114.222C67.9116 113.445 67.9647 112.668 68.0934 111.902C68.261 111.149 68.5273 110.423 68.8856 109.74C69.2617 109.075 69.7245 108.463 70.2616 107.921C70.811 107.39 71.4311 106.938 72.1044 106.577C72.7775 106.228 73.4961 105.975 74.2391 105.826C74.9909 105.699 75.7539 105.651 76.5156 105.684H128.59V101.202H128.44H90.6829H76.7157C76.0903 101.202 75.4732 101.202 74.8562 101.202C73.6465 101.275 72.456 101.54 71.3289 101.986C70.2434 102.391 69.2233 102.953 68.3019 103.656C67.8551 103.991 67.4316 104.356 67.0344 104.749C66.6533 105.141 66.2942 105.553 65.9587 105.984C65.3183 106.821 64.786 107.735 64.3744 108.705C63.9849 109.629 63.705 110.596 63.5406 111.585C63.5406 111.827 63.4654 112.069 63.4488 112.303C63.4321 112.536 63.4488 112.778 63.4488 113.012C63.4488 113.488 63.4488 113.947 63.4488 114.398C63.4488 116.217 63.4488 117.911 63.4488 119.497C63.4488 122.669 63.4488 125.34 63.4488 127.56C63.4488 129.78 63.4488 131.441 63.4488 132.568C63.4488 133.135 63.4488 133.569 63.4488 133.862C63.4488 134.154 63.4488 134.304 63.4488 134.304C63.4488 134.304 63.4488 134.162 63.4488 133.878C63.4488 133.595 63.4488 133.16 63.4488 132.601C63.4488 131.458 63.4488 129.78 63.4488 127.593C63.4488 125.407 63.4488 122.694 63.4488 119.514C63.4488 117.928 63.4488 116.217 63.4488 114.398C63.4488 113.938 63.4488 113.479 63.4488 113.012C63.4488 112.778 63.4488 112.545 63.4488 112.311C63.4488 112.077 63.5156 111.843 63.5489 111.601C63.7027 110.628 63.9685 109.676 64.3411 108.764C64.7537 107.811 65.2833 106.914 65.9172 106.093C66.245 105.665 66.5986 105.258 66.9762 104.874C67.3719 104.491 67.7895 104.132 68.227 103.797C69.1328 103.099 70.1356 102.537 71.2037 102.128C72.315 101.701 73.4847 101.445 74.6727 101.369C75.2815 101.369 75.8985 101.369 76.5239 101.369H90.4911H128.249L128.098 101.227V105.5L128.249 105.35H76.3238C75.5425 105.326 74.7607 105.376 73.9889 105.5C73.2114 105.657 72.4594 105.921 71.7542 106.285C71.0552 106.66 70.4124 107.132 69.8446 107.687C69.2765 108.25 68.7908 108.891 68.4021 109.59C68.0236 110.297 67.7431 111.052 67.5682 111.835C67.4366 112.624 67.3834 113.423 67.4096 114.222V134.421H67.5766H127.49H130.9C131.433 134.411 131.948 134.612 132.334 134.98C132.719 135.343 132.951 135.838 132.985 136.366C132.985 137.476 132.985 138.577 132.985 139.704C133.033 140.226 132.897 140.749 132.601 141.181C132.308 141.603 131.868 141.901 131.367 142.016C130.841 142.071 130.311 142.088 129.783 142.066H118.834H96.3699L64.0326 142.125C63.1282 142.139 62.2458 141.845 61.531 141.29C60.915 140.809 60.4563 140.155 60.2135 139.412C60.0283 138.828 59.9815 138.208 60.0771 137.603C60.1726 136.997 60.4077 136.422 60.7637 135.923C61.2067 135.309 61.8179 134.837 62.5233 134.563C62.7017 134.489 62.8856 134.431 63.0736 134.387L63.5573 134.429Z" fill="#263238"/>
<path d="M126.622 111.351C126.629 111.429 126.629 111.507 126.622 111.585C126.622 111.76 126.622 111.994 126.622 112.294C126.622 112.92 126.664 113.83 126.697 114.99C126.756 117.344 126.839 120.732 126.939 124.914C127.114 133.311 127.356 144.879 127.615 157.666C127.615 158.692 127.656 159.711 127.673 160.662V161.321L127.398 160.72C122.286 149.745 117.725 139.929 114.423 132.843L110.562 124.497C110.12 123.52 109.77 122.761 109.536 122.226C109.42 121.976 109.336 121.784 109.27 121.634L109.186 121.433C109.186 121.433 109.228 121.492 109.295 121.625L109.578 122.201C109.837 122.727 110.195 123.487 110.662 124.455L114.598 132.801L127.715 160.604L127.448 160.67C127.448 159.719 127.406 158.701 127.39 157.674C127.156 144.887 126.948 133.311 126.789 124.922C126.731 120.749 126.672 117.352 126.639 114.99C126.639 113.83 126.639 112.92 126.639 112.294V111.593C126.614 111.434 126.622 111.351 126.622 111.351Z" fill="#E0E0E0"/>
<path d="M146.377 126.717C146.337 126.841 146.287 126.961 146.226 127.076C146.101 127.326 145.943 127.66 145.743 128.077C145.326 128.912 144.7 130.189 143.916 131.725C142.357 134.796 140.148 139.011 137.604 143.61C135.061 148.209 132.668 152.332 130.933 155.295C130.016 156.773 129.291 157.958 128.799 158.792L128.207 159.736C128.138 159.846 128.063 159.952 127.981 160.053C128.031 159.932 128.09 159.815 128.157 159.702L128.707 158.742L130.75 155.212C132.468 152.224 134.836 148.092 137.379 143.527C139.922 138.961 142.157 134.729 143.758 131.683C144.592 130.181 145.201 128.954 145.668 128.077L146.193 127.101C146.235 126.964 146.296 126.835 146.377 126.717Z" fill="#E0E0E0"/>
<path d="M155.783 154.886C155.783 154.961 149.412 156.33 141.515 157.941C133.618 159.552 127.206 160.796 127.198 160.721C127.189 160.645 133.568 159.277 141.465 157.666C149.362 156.055 155.774 154.811 155.783 154.886Z" fill="#E0E0E0"/>
<path d="M154.89 174.793C154.89 174.859 148.661 171.93 141.056 168.249C133.451 164.568 127.298 161.522 127.331 161.455C127.364 161.388 133.56 164.318 141.173 167.999C148.786 171.679 154.924 174.718 154.89 174.793Z" fill="#E0E0E0"/>
<path d="M149.27 189.733C149.178 189.66 149.091 189.579 149.012 189.491L148.286 188.765C147.661 188.122 146.777 187.187 145.701 186.019C143.55 183.665 140.656 180.352 137.629 176.546C134.602 172.74 132.026 169.167 130.233 166.53C129.332 165.211 128.615 164.143 128.14 163.392L127.59 162.557C127.518 162.459 127.459 162.353 127.415 162.24C127.497 162.328 127.572 162.423 127.64 162.524C127.79 162.741 127.982 163.016 128.232 163.358C128.757 164.118 129.491 165.161 130.391 166.446C132.226 169.042 134.828 172.589 137.846 176.395C140.865 180.201 143.733 183.532 145.851 185.91L148.353 188.715L149.028 189.474C149.119 189.551 149.2 189.638 149.27 189.733Z" fill="#E0E0E0"/>
<path d="M137.471 204.172C137.471 204.172 137.429 204.014 137.354 203.722L137.079 202.445C136.829 201.301 136.487 199.699 136.062 197.729C135.228 193.748 133.927 188.264 132.384 182.238C130.842 176.212 129.291 170.803 128.132 166.905C127.556 164.969 127.081 163.4 126.747 162.281C126.597 161.755 126.472 161.33 126.381 161.021C126.333 160.876 126.293 160.728 126.264 160.579C126.332 160.715 126.388 160.858 126.43 161.004C126.539 161.313 126.672 161.722 126.856 162.248C127.214 163.325 127.69 164.894 128.323 166.847C129.532 170.736 131.1 176.145 132.651 182.171C134.202 188.197 135.436 193.689 136.253 197.687C136.662 199.682 136.979 201.301 137.187 202.42C137.279 202.962 137.354 203.396 137.413 203.713C137.451 203.863 137.47 204.018 137.471 204.172Z" fill="#E0E0E0"/>
<path d="M117.4 208.313C117.4 208.313 117.4 208.313 117.4 208.187L117.475 207.828C117.558 207.486 117.667 206.994 117.8 206.451C118.1 205.233 118.509 203.513 119.018 201.402C120.027 197.137 121.344 191.219 122.595 184.65C123.846 178.081 124.805 172.13 125.438 167.748C125.747 165.603 125.997 163.851 126.172 162.607L126.372 161.213L126.431 160.846V160.729C126.431 160.729 126.431 160.771 126.431 160.854C126.431 160.938 126.431 161.071 126.431 161.221C126.431 161.564 126.347 162.056 126.289 162.624C126.155 163.842 125.93 165.603 125.638 167.782C125.055 172.13 124.129 178.123 122.878 184.7C121.627 191.277 120.277 197.22 119.218 201.452C118.692 203.58 118.242 205.299 117.917 206.46L117.542 207.828C117.5 207.962 117.458 208.079 117.433 208.179L117.4 208.313Z" fill="#E0E0E0"/>
<path d="M98.0708 174.793C98.1584 174.728 98.2537 174.675 98.3544 174.634L99.1883 174.25L102.29 172.865L112.505 168.266C116.491 166.455 120.118 164.852 122.762 163.734C124.079 163.174 125.146 162.732 125.897 162.432L126.731 162.098C126.829 162.052 126.933 162.018 127.039 161.998C126.949 162.054 126.854 162.105 126.756 162.148L125.922 162.532L122.82 163.917L112.605 168.516C108.619 170.327 104.992 171.93 102.349 173.048C101.031 173.608 99.9554 174.058 99.2133 174.35L98.3794 174.693C98.2805 174.737 98.177 174.771 98.0708 174.793Z" fill="#E0E0E0"/>
<path d="M129.524 160.17C129.41 160.154 129.297 160.123 129.191 160.078L128.257 159.761C127.423 159.485 126.272 159.06 124.838 158.517C121.961 157.432 118.025 155.846 113.747 153.918C109.47 151.99 105.676 150.104 102.957 148.668C101.598 147.95 100.506 147.358 99.7552 146.941L98.9213 146.448C98.8189 146.397 98.7238 146.332 98.6379 146.256C98.7472 146.295 98.853 146.342 98.9547 146.398L99.8303 146.84L103.074 148.51C105.809 149.895 109.62 151.765 113.914 153.685C118.209 155.604 122.103 157.223 124.955 158.35L128.29 159.627L129.207 159.994C129.32 160.04 129.426 160.099 129.524 160.17Z" fill="#E0E0E0"/>
<path d="M127.59 164.785C128.902 164.785 129.966 162.939 129.966 160.662C129.966 158.385 128.902 156.539 127.59 156.539C126.277 156.539 125.213 158.385 125.213 160.662C125.213 162.939 126.277 164.785 127.59 164.785Z" fill="#E0E0E0"/>
<path d="M105.267 194.349C105.208 194.307 110.145 186.728 116.307 177.43C122.469 168.132 127.523 160.62 127.589 160.662C127.656 160.704 122.711 168.282 116.541 177.58C110.37 186.878 105.334 194.39 105.267 194.349Z" fill="#E0E0E0"/>
<path d="M152.147 143.301C152.147 143.301 152.072 143.368 151.905 143.477L151.171 143.911L148.495 145.521C146.235 146.899 143.158 148.86 139.881 151.205C136.604 153.551 133.735 155.821 131.709 157.515C130.692 158.35 129.875 159.051 129.316 159.527L128.657 160.078C128.507 160.203 128.424 160.261 128.415 160.253C128.477 160.174 128.547 160.101 128.624 160.036C128.782 159.877 128.991 159.685 129.241 159.452C129.783 158.943 130.575 158.225 131.576 157.365C133.585 155.629 136.429 153.334 139.714 150.98C143 148.626 146.102 146.69 148.386 145.355C149.537 144.687 150.471 144.169 151.121 143.819L151.88 143.426C151.963 143.373 152.053 143.331 152.147 143.301Z" fill="#E0E0E0"/>
<path d="M128.799 210.232C128.79 210.076 128.79 209.92 128.799 209.765C128.799 209.431 128.799 208.98 128.74 208.421C128.74 207.219 128.657 205.533 128.59 203.463C128.457 199.29 128.282 193.447 128.082 187.121C127.881 180.794 127.648 174.985 127.498 170.778C127.423 168.708 127.364 167.022 127.323 165.829C127.323 165.261 127.323 164.81 127.323 164.476C127.314 164.321 127.314 164.165 127.323 164.009C127.35 164.164 127.367 164.32 127.373 164.476C127.373 164.81 127.423 165.253 127.464 165.82C127.523 167.014 127.615 168.7 127.723 170.77C127.931 174.943 128.182 180.727 128.399 187.112C128.615 193.497 128.749 199.273 128.824 203.463C128.824 205.533 128.866 207.219 128.882 208.413V209.765C128.867 209.922 128.839 210.079 128.799 210.232Z" fill="#E0E0E0"/>
<path d="M156.45 164.326H155.891L154.273 164.243C152.872 164.168 150.829 164.034 148.294 163.817C143.208 163.4 136.12 162.624 128.132 161.313H128.081L124.246 157.065L108.069 139.061L103.191 133.586L101.873 132.084L101.531 131.691L101.423 131.55L101.556 131.675L101.915 132.05L103.266 133.511L108.211 138.928L124.454 156.873L128.29 161.13H128.207C136.187 162.44 143.266 163.241 148.344 163.709C150.846 163.951 152.914 164.109 154.315 164.218L155.924 164.351H156.341L156.45 164.326Z" fill="#E0E0E0"/>
<path d="M117.4 113.646C117.528 113.934 117.62 114.237 117.675 114.548C117.825 115.149 118.033 116.033 118.292 117.177C118.809 119.472 119.526 122.786 120.393 126.892C122.136 135.097 124.488 146.448 127.064 158.993C127.139 159.343 127.206 159.686 127.273 160.011H126.998C129.883 147.784 132.493 136.758 134.369 128.778C135.328 124.806 136.095 121.592 136.629 119.355C136.895 118.254 137.112 117.394 137.254 116.801C137.329 116.517 137.379 116.3 137.421 116.134L137.488 115.916C137.495 115.991 137.495 116.067 137.488 116.142C137.488 116.309 137.404 116.526 137.346 116.81C137.204 117.411 137.012 118.27 136.771 119.38L134.594 128.82C132.735 136.808 130.158 147.834 127.306 160.078L127.156 160.696L127.031 160.07C126.964 159.752 126.897 159.402 126.822 159.051C124.262 146.532 121.936 135.172 120.252 126.942C119.418 122.844 118.709 119.522 118.234 117.21C117.992 116.075 117.8 115.19 117.667 114.573C117.6 114.281 117.55 114.055 117.508 113.888C117.477 113.806 117.441 113.725 117.4 113.646Z" fill="#E0E0E0"/>
<path d="M151.23 130.648C148.119 123.42 143.308 116.376 136.445 112.286C133.379 110.43 129.914 109.337 126.339 109.097C122.781 108.933 119.238 109.662 116.032 111.217C109.028 114.456 103.9 121.091 100.514 127.844C96.1198 136.608 93.9933 146.415 93.5347 156.18C92.9646 166.298 94.4278 176.427 97.8375 185.969C100.748 193.798 105.167 201.285 111.946 206.334C117.592 210.508 124.98 212.135 131.734 209.865C139.089 207.361 144.651 201.393 148.47 194.841C153.281 186.562 155.733 177.055 156.625 167.573C156.864 165.064 156.983 162.543 156.983 160.011C157.074 149.934 155.116 139.944 151.23 130.648ZM151.472 167.531C151.422 168.132 151.355 168.725 151.288 169.318C151.288 169.601 151.213 169.877 151.18 170.152V170.194L151.105 170.703C150.93 171.888 150.729 173.074 150.496 174.242C150.057 176.512 149.501 178.757 148.828 180.969C148.511 181.996 148.178 183.023 147.811 184.033C147.628 184.533 147.444 185.026 147.252 185.518C147.152 185.777 147.052 186.036 146.944 186.286L146.819 186.603C146.004 188.492 145.085 190.334 144.067 192.12C143.575 192.955 143.058 193.79 142.508 194.624C142.266 194.991 142.024 195.35 141.765 195.701L141.34 196.285C141.282 196.352 141.232 196.427 141.182 196.494C140.086 197.891 138.884 199.203 137.588 200.417C137.279 200.701 136.971 200.976 136.654 201.251L136.154 201.66L136.02 201.769C135.361 202.245 134.711 202.712 134.019 203.129C133.339 203.548 132.638 203.93 131.917 204.273L131.442 204.49H131.367C130.992 204.64 130.617 204.774 130.241 204.899C129.53 205.132 128.806 205.324 128.073 205.475L127.49 205.575H127.315H126.931C126.714 205.575 126.497 205.575 126.272 205.625C125.522 205.671 124.771 205.671 124.021 205.625H123.495H123.103H122.937L122.286 205.508C121.533 205.353 120.789 205.152 120.06 204.907C119.726 204.799 119.393 204.673 119.059 204.54H118.984L118.384 204.264C116.97 203.526 115.611 202.69 114.315 201.761C114.99 202.203 114.381 201.811 114.223 201.677L113.773 201.31C113.439 201.026 113.106 200.734 112.78 200.433C112.141 199.832 111.524 199.206 110.929 198.555C110.329 197.904 109.77 197.22 109.22 196.527L109.086 196.352L108.661 195.768C108.369 195.367 108.094 194.933 107.827 194.557C106.727 192.894 105.733 191.163 104.85 189.374C104.372 188.477 103.949 187.552 103.583 186.603C103.8 187.246 103.583 186.545 103.491 186.37C103.399 186.194 103.283 185.86 103.183 185.602C102.974 185.084 102.782 184.558 102.591 184.033C101.834 181.908 101.185 179.746 100.648 177.556C100.089 175.294 99.6468 172.998 99.3133 170.686C99.3133 170.536 99.2717 170.386 99.2467 170.227L99.1466 169.393C99.0715 168.733 98.9965 168.066 98.9381 167.398C98.8297 166.188 98.7463 164.977 98.6879 163.759C98.5712 161.255 98.5712 158.659 98.6879 156.113C98.7463 154.861 98.8381 153.609 98.9631 152.374C99.0132 151.773 99.0799 151.181 99.1549 150.588C99.1549 150.396 99.1967 150.212 99.2217 150.02C99.2217 150.02 99.2217 150.02 99.2217 149.82C99.2217 149.62 99.2799 149.411 99.3133 149.202C99.9689 144.649 101.086 140.175 102.649 135.848C102.824 135.347 103.016 134.855 103.208 134.362C103.291 134.137 103.383 133.903 103.483 133.678L103.616 133.344V133.302C104.033 132.343 104.45 131.391 104.942 130.465C105.814 128.706 106.797 127.006 107.885 125.373C108.144 124.989 108.411 124.614 108.719 124.238C108.861 124.038 109.011 123.846 109.153 123.654V123.612C109.183 123.565 109.216 123.52 109.253 123.479L109.303 123.42C109.854 122.727 110.42 122.06 111.021 121.409C111.621 120.758 112.23 120.14 112.88 119.547C113.18 119.264 113.497 118.988 113.814 118.713L114.256 118.345L114.423 118.22C115.712 117.25 117.095 116.411 118.551 115.716L118.976 115.516H119.043C119.418 115.374 119.793 115.232 120.168 115.115C120.9 114.872 121.647 114.674 122.403 114.523L122.987 114.423H123.07H122.953C123.345 114.423 123.737 114.331 124.137 114.314C124.909 114.264 125.684 114.264 126.456 114.314H126.981L127.431 114.381L127.014 114.314C127.406 114.381 127.798 114.439 128.182 114.514C128.916 114.666 129.64 114.864 130.35 115.107C130.708 115.224 131.059 115.357 131.409 115.491H131.45L132.059 115.775C132.758 116.11 133.437 116.483 134.094 116.893C134.436 117.102 134.761 117.319 135.086 117.544L135.611 117.911L136.012 118.212L136.22 118.379L136.662 118.754C137.004 119.038 137.329 119.33 137.655 119.631C138.294 120.232 138.911 120.858 139.506 121.509C140.098 122.168 140.606 122.953 141.232 123.579L141.34 123.721L141.724 124.246C142.007 124.647 142.291 125.081 142.558 125.457C143.108 126.291 143.642 127.126 144.142 128.027C144.642 128.929 145.093 129.755 145.526 130.64C145.751 131.091 145.968 131.55 146.185 132.009L146.477 132.66C146.535 132.802 146.602 132.935 146.66 133.077V133.16L146.76 133.386L146.935 133.812C147.027 134.037 147.111 134.262 147.202 134.496C147.411 135.013 147.603 135.539 147.794 136.065C148.161 137.117 148.511 138.177 148.828 139.237C149.479 141.424 150.021 143.644 150.496 145.914C150.721 147.091 150.921 148.276 151.088 149.461C151.088 149.595 151.088 149.728 151.146 149.862V149.912L151.246 150.747C151.321 151.373 151.388 152.007 151.447 152.641C151.674 155.084 151.786 157.535 151.78 159.995C151.775 162.454 151.672 164.966 151.472 167.531Z" fill="#263238"/>
<path d="M151.83 159.969C151.83 159.969 151.83 160.078 151.83 160.295C151.83 160.512 151.83 160.854 151.83 161.272C151.83 162.106 151.763 163.408 151.655 165.069C151.34 169.83 150.549 174.547 149.295 179.15C148.409 182.406 147.24 185.579 145.801 188.631C144.987 190.362 144.057 192.035 143.016 193.639C142.507 194.474 141.94 195.309 141.348 196.143C140.756 196.978 140.056 197.746 139.347 198.522C138.627 199.309 137.864 200.056 137.062 200.759C136.661 201.129 136.237 201.474 135.795 201.794L134.427 202.729C133.963 203.039 133.478 203.318 132.976 203.563C132.476 203.822 131.992 204.123 131.467 204.34C130.379 204.747 129.265 205.079 128.131 205.333C127.558 205.457 126.975 205.535 126.389 205.567C125.797 205.567 125.205 205.567 124.604 205.567C124.006 205.578 123.409 205.53 122.82 205.425C122.219 205.333 121.644 205.132 121.052 204.982C119.849 204.699 118.695 204.241 117.625 203.622C116.532 203.012 115.498 202.278 114.423 201.569L114.256 201.819L114.506 201.986H114.564L114.765 201.769L114.648 201.685C114.489 201.581 114.338 201.463 114.198 201.335C113.889 201.093 113.605 200.826 113.314 200.567C112.73 200.049 112.205 199.465 111.646 198.898C111.087 198.33 110.595 197.712 110.062 197.111C109.534 196.502 109.044 195.861 108.594 195.192C106.713 192.471 105.12 189.562 103.841 186.511L103.532 186.612L103.599 186.804V186.854C103.507 186.787 104.149 186.645 103.899 186.737L103.858 186.645L103.716 186.253L103.407 185.485C103.216 184.967 103.024 184.45 102.824 183.932C102.457 182.889 102.107 181.821 101.781 180.744C101.124 178.548 100.581 176.319 100.155 174.067C99.2482 169.451 98.7876 164.758 98.7794 160.053C98.7794 158.384 98.7794 156.648 98.9462 154.97C99.0045 154.135 99.0712 153.301 99.1296 152.466C99.188 151.631 99.3048 150.797 99.3965 149.962H99.0714C98.8212 150.02 99.5049 150.121 99.3965 149.962V149.87V149.753V149.528L99.4633 149.069L99.6049 148.151C99.6967 147.542 99.8052 146.932 99.9219 146.331C100.147 145.121 100.397 143.927 100.681 142.751C101.244 140.411 101.934 138.104 102.749 135.84C104.31 131.482 106.496 127.375 109.236 123.645C109.278 123.579 109.319 123.529 109.369 123.462L109.078 123.353L108.427 124.58L109.344 123.512C109.82 122.953 110.287 122.393 110.762 121.843C111.237 121.292 111.763 120.808 112.255 120.29C113.236 119.269 114.327 118.36 115.507 117.578C116.645 116.798 117.857 116.133 119.126 115.591L120.085 115.249C120.41 115.149 120.735 115.074 121.06 114.982C121.699 114.796 122.348 114.646 123.003 114.531V114.239H122.961V114.531C124.437 114.335 125.931 114.335 127.406 114.531L127.456 114.256L127.039 114.18L126.989 114.456L128.14 114.656L129.249 114.957L130.35 115.257L131.408 115.649C132.101 115.942 132.734 116.334 133.385 116.684C134.028 117.029 134.649 117.414 135.244 117.836C135.829 118.248 136.386 118.696 136.912 119.18C137.442 119.641 137.949 120.129 138.43 120.641C138.928 121.114 139.401 121.612 139.847 122.135C140.254 122.682 140.691 123.206 141.156 123.704C144.321 128.002 146.75 132.797 148.344 137.893C149.043 139.97 149.625 142.085 150.087 144.228C150.309 145.218 150.493 146.17 150.637 147.082C150.796 147.992 150.938 148.852 151.079 149.678C151.513 152.975 151.671 155.521 151.73 157.307C151.73 158.142 151.78 158.851 151.788 159.302V159.986C151.788 159.986 151.788 159.752 151.788 159.302C151.788 158.851 151.788 158.183 151.788 157.307C151.721 154.75 151.523 152.198 151.196 149.662C151.063 148.838 150.921 147.97 150.771 147.057C150.629 146.139 150.454 145.188 150.237 144.195C149.781 142.044 149.205 139.921 148.511 137.835C146.932 132.7 144.509 127.865 141.34 123.529C140.881 123.038 140.45 122.522 140.047 121.984C139.598 121.451 139.122 120.942 138.621 120.457C138.13 119.956 137.637 119.447 137.087 118.98C136.558 118.494 136.001 118.04 135.419 117.619C134.819 117.191 134.192 116.801 133.543 116.451C132.884 116.1 132.242 115.7 131.542 115.399L130.466 114.998L129.349 114.69L128.223 114.381L127.064 114.18L127.014 114.456L127.431 114.531L127.481 114.256C125.981 114.055 124.461 114.055 122.961 114.256V114.548H123.086V114.256C122.417 114.37 121.754 114.523 121.102 114.715C120.768 114.806 120.435 114.882 120.11 114.982L119.134 115.332C117.844 115.877 116.612 116.551 115.457 117.344C114.261 118.135 113.156 119.056 112.163 120.09C111.663 120.607 111.112 121.091 110.645 121.651L109.219 123.32L109.486 123.479L109.194 123.37L109.036 123.579C106.261 127.33 104.052 131.47 102.482 135.865C101.659 138.136 100.963 140.452 100.397 142.801C100.114 143.994 99.8551 145.188 99.63 146.406C99.5132 147.007 99.4131 147.617 99.313 148.234L99.1713 149.152L99.1045 149.611V149.845V149.954V150.037C99.2101 150.043 99.316 150.043 99.4215 150.037L99.0962 149.995C99.0045 150.83 98.9129 151.665 98.8295 152.499C98.7461 153.334 98.7045 154.169 98.6461 155.003C98.5043 156.673 98.4791 158.392 98.4708 160.103C98.4565 164.828 98.8949 169.543 99.78 174.184C100.223 176.436 100.78 178.665 101.448 180.861C101.776 181.946 102.126 183.014 102.498 184.066L103.082 185.627L103.391 186.395L103.532 186.779V186.879C103.282 186.979 103.924 186.82 103.833 186.762V186.712L103.766 186.52L103.457 186.62C104.749 189.703 106.361 192.64 108.269 195.384C108.721 196.061 109.216 196.708 109.753 197.32C110.287 197.921 110.762 198.572 111.346 199.123C111.93 199.674 112.447 200.275 113.014 200.792C113.305 201.051 113.597 201.326 113.897 201.569C114.048 201.7 114.207 201.823 114.373 201.936L114.49 202.019C114.431 202.069 114.581 201.944 114.49 202.019C114.89 201.577 114.598 201.894 114.69 201.794H114.631L114.381 201.635L114.214 201.886C115.282 202.595 116.324 203.33 117.433 203.956C118.529 204.574 119.704 205.038 120.927 205.333C121.536 205.483 122.119 205.683 122.728 205.775C123.33 205.885 123.942 205.932 124.554 205.917C125.163 205.917 125.772 205.917 126.364 205.917C126.964 205.883 127.56 205.802 128.148 205.675C129.282 205.413 130.397 205.073 131.484 204.657C132.017 204.431 132.509 204.131 133.01 203.822C133.518 203.58 134.009 203.301 134.477 202.987L135.861 202.036C136.309 201.713 136.735 201.362 137.137 200.984C137.951 200.279 138.72 199.524 139.439 198.722C140.156 197.938 140.831 197.145 141.448 196.319C142.046 195.513 142.603 194.677 143.116 193.815C144.156 192.21 145.087 190.537 145.901 188.807C147.337 185.738 148.497 182.549 149.37 179.275C150.617 174.662 151.38 169.932 151.646 165.161C151.897 161.756 151.83 159.969 151.83 159.969Z" fill="#455A64"/>
<path d="M141.165 123.437C141.165 123.437 141.165 123.437 141.165 123.37C141.174 123.364 141.184 123.361 141.194 123.361C141.205 123.361 141.215 123.364 141.223 123.37C141.227 123.353 141.227 123.336 141.223 123.32L141.107 123.545H140.973C140.973 123.545 140.973 123.545 141.048 123.545C141.123 123.545 141.048 123.453 141.098 123.462C141.107 123.457 141.117 123.454 141.127 123.454C141.138 123.454 141.148 123.457 141.157 123.462C141.157 123.462 141.157 123.462 141.207 123.462C141.257 123.462 141.248 123.37 141.207 123.337C141.165 123.303 141.207 123.278 141.207 123.228H141.073L140.957 123.453H141.006C141.018 123.46 141.031 123.463 141.044 123.463C141.057 123.463 141.07 123.46 141.082 123.453C141.082 123.453 141.182 123.453 141.165 123.437Z" fill="#455A64"/>
<path d="M156.983 159.969C156.983 159.969 156.983 159.043 156.983 157.29C156.983 155.537 156.817 152.942 156.4 149.628C155.897 145.601 155.061 141.623 153.898 137.734C152.401 132.565 150.193 127.629 147.336 123.07C145.654 120.428 143.655 118.003 141.382 115.85C138.914 113.506 136.025 111.651 132.868 110.383C129.458 109.037 125.754 108.612 122.128 109.148C118.301 109.784 114.683 111.333 111.58 113.663C108.354 116.13 105.575 119.134 103.366 122.544C101.054 126.079 99.1591 129.872 97.7207 133.845C94.7247 142.218 93.2148 151.051 93.2594 159.944C93.1757 168.843 94.6809 177.684 97.704 186.052C99.1481 190.023 101.048 193.813 103.366 197.345C105.592 200.744 108.371 203.746 111.588 206.226C114.666 208.595 118.291 210.151 122.128 210.75C125.75 211.328 129.461 210.916 132.868 209.556C136.023 208.28 138.908 206.42 141.374 204.072C143.645 201.916 145.647 199.492 147.336 196.853C150.218 192.308 152.439 187.376 153.931 182.205C155.075 178.312 155.895 174.331 156.383 170.302C156.792 166.964 156.925 164.401 156.975 162.649C156.975 161.764 156.975 161.096 156.975 160.646C156.975 161.096 156.975 161.772 156.917 162.64C156.85 164.393 156.692 166.981 156.258 170.286C155.747 174.303 154.91 178.273 153.756 182.155C152.249 187.3 150.022 192.206 147.144 196.728C145.459 199.344 143.463 201.746 141.198 203.881C138.755 206.205 135.895 208.046 132.768 209.306C129.406 210.637 125.748 211.037 122.178 210.466C118.391 209.868 114.815 208.327 111.78 205.984C108.596 203.526 105.845 200.553 103.641 197.187C101.335 193.674 99.4456 189.904 98.0126 185.952C95.0113 177.62 93.5176 168.818 93.6014 159.961C93.5532 151.108 95.0518 142.315 98.0293 133.978C99.4616 130.027 101.345 126.255 103.641 122.736C105.825 119.354 108.575 116.375 111.771 113.93C114.83 111.621 118.4 110.083 122.178 109.448C125.752 108.915 129.404 109.33 132.768 110.65C135.899 111.9 138.765 113.732 141.215 116.05C143.479 118.186 145.473 120.591 147.152 123.211C150.007 127.751 152.221 132.663 153.731 137.809C154.887 141.685 155.723 145.649 156.233 149.662C156.666 153 156.808 155.554 156.875 157.307C156.917 158.142 156.917 158.851 156.933 159.302C156.95 159.752 156.983 159.969 156.983 159.969Z" fill="#455A64"/>
<path d="M127.448 114.356C127.448 114.356 127.498 114.356 127.498 114.397C127.498 114.439 127.406 114.464 127.431 114.472C127.428 114.489 127.428 114.506 127.431 114.523L127.481 114.197C127.481 114.197 127.548 114.264 127.481 114.297C127.414 114.331 127.481 114.297 127.423 114.297C127.365 114.297 127.373 114.297 127.356 114.297C127.34 114.297 127.415 114.389 127.406 114.389V114.556L127.464 114.23C127.464 114.23 127.464 114.23 127.464 114.272C127.464 114.314 127.381 114.272 127.39 114.347C127.398 114.422 127.423 114.356 127.448 114.356Z" fill="#455A64"/>
<path d="M109.319 123.362C109.319 123.42 109.219 123.487 109.169 123.554C109.119 123.62 109.261 123.503 109.319 123.362Z" fill="#263238"/>
<path d="M109.32 123.362C109.32 123.362 109.32 123.42 109.253 123.362C109.186 123.303 109.203 123.362 109.186 123.362H109.111C109.152 123.349 109.196 123.349 109.236 123.362C109.345 123.445 109.311 123.453 109.328 123.512C109.345 123.57 109.328 123.562 109.328 123.562C109.411 123.445 109.428 123.328 109.386 123.278C109.341 123.273 109.295 123.28 109.253 123.298C109.211 123.315 109.173 123.343 109.144 123.378C109.144 123.378 109.144 123.378 109.144 123.437C109.144 123.495 109.145 123.512 109.245 123.587C109.285 123.603 109.33 123.603 109.37 123.587V123.528C109.376 123.493 109.376 123.456 109.37 123.42C109.37 123.378 109.37 123.378 109.37 123.311C109.37 123.245 109.328 123.345 109.32 123.362Z" fill="#455A64"/>
<path d="M123.087 114.331C123.328 114.331 123.687 114.281 123.087 114.331V114.331Z" fill="#263238"/>
<path d="M123.087 114.331C123.087 114.331 123.153 114.331 123.162 114.381C123.17 114.431 123.162 114.423 123.162 114.439C123.197 114.448 123.235 114.448 123.27 114.439H123.362L123.237 114.347L123.328 114.114C123.263 114.123 123.201 114.146 123.145 114.18C123.157 114.193 123.163 114.209 123.163 114.226C123.163 114.243 123.157 114.26 123.145 114.272C123.132 114.278 123.118 114.281 123.103 114.281C123.089 114.281 123.075 114.278 123.062 114.272C123.062 114.272 123.12 114.356 123.195 114.364C123.285 114.387 123.38 114.387 123.47 114.364L123.57 114.13L123.437 114.039H123.345H123.278H123.178C123.144 114.065 123.11 114.092 123.078 114.122C123.037 114.339 123.07 114.339 123.087 114.331Z" fill="#455A64"/>
<path d="M128.799 160.462C128.799 160.37 121.886 160.295 113.364 160.295C104.842 160.295 97.9458 160.403 97.9458 160.462C97.9458 160.52 104.859 160.629 113.389 160.629C121.919 160.629 128.799 160.587 128.799 160.462Z" fill="#E0E0E0"/>
<path d="M108.252 115.232C108.252 115.232 106.034 117.127 105.501 119.138C105.157 120.52 104.731 121.88 104.225 123.211C103.866 124.046 102.198 126.441 102.507 126.942C102.815 127.443 103.833 127.176 104.717 126.675C105.447 126.077 106.037 125.325 106.443 124.472L105.092 129.58C105.092 129.58 103.332 133.043 103.924 134.529C104.083 134.637 104.263 134.712 104.451 134.747C104.64 134.783 104.834 134.779 105.021 134.736C105.208 134.693 105.385 134.611 105.539 134.497C105.693 134.382 105.822 134.237 105.917 134.07C106.651 132.818 106.976 131.474 107.702 130.464C108.427 129.454 109.295 128.035 109.295 128.035C109.295 128.035 111.646 127.201 112.146 126.491C112.146 126.491 114.373 125.941 115.098 125.114C116.294 123.413 117.356 121.621 118.275 119.756C119.109 118.145 119.609 116.843 119.609 116.843L114.731 111C112.495 112.29 110.332 113.703 108.252 115.232Z" fill="#F2C5B1"/>
<path d="M108.052 119.472C107.569 120.247 107.206 121.092 106.977 121.976C106.64 122.839 106.438 123.748 106.376 124.672C106.758 123.836 107.062 122.967 107.285 122.076C107.616 121.232 107.873 120.361 108.052 119.472Z" fill="#F3B69A"/>
<path d="M109.261 128.153C109.328 128.203 109.745 127.71 110.003 126.976C110.213 126.543 110.274 126.053 110.178 125.582C110.078 125.582 109.945 126.166 109.695 126.859C109.445 127.552 109.178 128.102 109.261 128.153Z" fill="#F3B69A"/>
<path d="M112.872 124.572C112.78 124.572 112.605 125.006 112.413 125.548C112.222 126.091 112.055 126.55 112.138 126.592C112.222 126.633 112.513 126.233 112.722 125.665C112.93 125.098 112.955 124.572 112.872 124.572Z" fill="#F3B69A"/>
<path d="M123.312 88.398L116.149 76.9967L129.057 70.0273C129.057 70.0273 137.179 83.507 136.562 88.999C135.578 97.3455 119.368 117.319 119.368 117.319L113.031 112.653L123.312 88.398Z" fill="#F2C5B1"/>
<path d="M126.522 88.5064C126.019 88.2093 125.436 88.0779 124.854 88.1308C124.275 88.0831 123.695 88.2079 123.187 88.4897C123.741 88.5434 124.3 88.5434 124.854 88.4897C125.409 88.543 125.967 88.5486 126.522 88.5064Z" fill="#F3B69A"/>
<path d="M99.1048 49.4531C98.0958 53.3676 99.1048 57.0234 101.44 57.6243C103.774 58.2253 106.443 55.5293 107.435 51.6148C108.427 47.7003 107.435 44.0362 105.109 43.4436C102.782 42.851 100.122 45.5636 99.1048 49.4531Z" fill="#455A64"/>
<path d="M104.033 51.5315C103.583 54.169 104.35 56.5394 105.751 56.7481C107.152 56.9568 108.653 55.0788 109.086 52.3996C109.52 49.7203 108.769 47.3917 107.368 47.183C105.967 46.9743 104.483 48.894 104.033 51.5315Z" fill="#455A64"/>
<path d="M106.084 49.5033C106.084 49.5033 108.394 44.4953 107.852 42.4671C107.068 39.5292 102.615 35.9902 102.615 35.9902L102.749 39.8296C102.749 39.8296 105.434 40.923 105.717 43.0848C106.001 45.2465 104.825 49.1193 104.825 49.1193L106.084 49.5033Z" fill="#455A64"/>
<path d="M105.367 56.6228C105.002 56.1881 104.694 55.7084 104.45 55.1956C104.215 54.6304 104.08 54.029 104.05 53.4178C104.018 52.6665 104.102 51.9148 104.3 51.1892C104.476 50.4563 104.734 49.7453 105.067 49.0692C105.331 48.5259 105.756 48.0772 106.284 47.7839C106.641 47.5876 107.046 47.4978 107.452 47.5251C107.6 47.5586 107.751 47.5837 107.902 47.6002C107.902 47.6002 107.777 47.4667 107.468 47.3916C107.031 47.3045 106.577 47.3631 106.176 47.5585C105.585 47.8546 105.103 48.331 104.8 48.919C104.438 49.616 104.158 50.3526 103.966 51.1141C103.767 51.8761 103.691 52.6651 103.741 53.4511C103.784 54.0947 103.951 54.7239 104.233 55.3041C104.427 55.6939 104.683 56.0492 104.992 56.3557C105.209 56.556 105.35 56.6395 105.367 56.6228Z" fill="#263238"/>
<path d="M103.433 56.7563C102.939 56.2965 102.564 55.7237 102.34 55.087C101.898 53.9101 102.09 52.124 102.382 50.221C102.503 49.3419 102.786 48.493 103.216 47.717C103.58 47.0897 104.107 46.5732 104.742 46.223C105.339 45.9092 106.012 45.7703 106.685 45.8223C106.518 45.7333 106.332 45.6874 106.143 45.6888C105.62 45.6568 105.099 45.7663 104.633 46.006C103.945 46.3562 103.368 46.8908 102.966 47.5501C102.489 48.357 102.177 49.2507 102.048 50.1792C101.896 51.0903 101.805 52.0104 101.773 52.9336C101.741 53.6998 101.857 54.465 102.115 55.1871C102.219 55.5235 102.389 55.8356 102.615 56.1051C102.842 56.3745 103.12 56.596 103.433 56.7563Z" fill="#263238"/>
<path d="M86.9971 49.3447C87.7559 45.3801 86.48 41.7911 84.1452 41.3404C81.8103 40.8897 79.3088 43.7525 78.5416 47.7255C77.7745 51.6984 79.0585 55.2374 81.385 55.7298C83.7115 56.2222 86.2717 53.3176 86.9971 49.3447Z" fill="#455A64"/>
<path d="M81.9439 47.6168C82.2274 44.9543 81.3102 42.6673 79.901 42.5171C78.4917 42.3668 77.1157 44.4034 76.8322 47.0743C76.5487 49.7452 77.4659 52.0154 78.8751 52.1657C80.2844 52.3159 81.6604 50.2877 81.9439 47.6168Z" fill="#455A64"/>
<path d="M78.3999 51.423C78.3999 51.423 78.525 51.5148 78.8001 51.5232C79.1935 51.525 79.5768 51.3991 79.8926 51.1643C80.3383 50.8018 80.6829 50.3303 80.8931 49.7954C81.1631 49.1687 81.3617 48.5136 81.4852 47.8424C81.7309 46.6234 81.7167 45.3663 81.4434 44.1532C81.346 43.7794 81.1536 43.4372 80.8848 43.16C80.6847 42.9763 80.5346 42.9263 80.5263 42.943C80.8688 43.2952 81.103 43.7384 81.2016 44.22C81.3932 45.402 81.3736 46.6088 81.1433 47.7839C80.8682 49.1444 80.4344 50.4047 79.7423 50.964C79.3618 51.2687 78.8872 51.4311 78.3999 51.423Z" fill="#263238"/>
<path d="M79.1838 54.2022C79.3556 54.3381 79.5655 54.4169 79.7842 54.4275C80.3615 54.4977 80.946 54.3806 81.4519 54.0937C82.1925 53.633 82.7925 52.9776 83.1864 52.199C83.688 51.2818 84.0663 50.3024 84.312 49.2861C84.8123 47.141 84.8123 45.0127 84.0869 43.6856C83.822 43.1635 83.4217 42.7224 82.9279 42.4085C82.7543 42.2789 82.5505 42.1956 82.3359 42.1665C82.3359 42.1665 82.5359 42.275 82.8528 42.5171C83.2871 42.8571 83.6358 43.2945 83.8703 43.7941C84.4873 45.0544 84.4705 47.1327 83.9786 49.2026C83.4866 51.2725 82.536 53.1589 81.3269 53.8767C80.8609 54.1696 80.3174 54.3151 79.7675 54.294C79.4089 54.269 79.2005 54.1771 79.1838 54.2022Z" fill="#263238"/>
</g>
<defs>
<clipPath id="clip0_7_4253">
<rect width="157" height="211" fill="white"/>
</clipPath>
</defs>
</svg>
